<svg width="27" height="27" viewBox="0 0 27 27" fill="none" xmlns="http://www.w3.org/2000/svg">
<g clip-path="url(#clip0_1_131)">
<mask id="mask0_1_131" style="mask-type:luminance" maskUnits="userSpaceOnUse" x="0" y="0" width="27" height="27">
<path d="M26.5866 0.043457V26.1435H0.486572V0.043457H26.5866Z" fill="white"/>
</mask>
<g mask="url(#mask0_1_131)">
<path d="M13.5366 2.21838C7.52818 2.21838 2.66162 7.08495 2.66162 13.0934C2.66162 19.1018 7.52818 23.9684 13.5366 23.9684C19.5451 23.9684 24.4116 19.1018 24.4116 13.0934C24.4116 7.08495 19.5451 2.21838 13.5366 2.21838ZM13.5366 21.7934C8.74075 21.7934 4.83662 17.8893 4.83662 13.0934C4.83662 8.29751 8.74075 4.39338 13.5366 4.39338C18.3325 4.39338 22.2366 8.29751 22.2366 13.0934C22.2366 17.8893 18.3325 21.7934 13.5366 21.7934ZM11.4486 11.8591C11.5084 11.5056 11.6172 11.1903 11.7749 10.9129C11.9326 10.6356 12.1501 10.4127 12.4165 10.2441C12.6721 10.0864 12.9929 9.99945 13.3898 9.99401C13.6508 9.99945 13.8901 10.0429 14.0967 10.1354C14.3196 10.2333 14.5045 10.3638 14.6622 10.5269C14.8199 10.69 14.9395 10.8858 15.0265 11.1033C15.1135 11.3208 15.1624 11.5546 15.1733 11.7993H17.1199C17.1036 11.2881 17.0003 10.8205 16.8209 10.3964C16.6414 9.97226 16.3804 9.60795 16.0542 9.29801C15.7279 8.98807 15.3364 8.75426 14.8797 8.5857C14.4229 8.41713 13.9172 8.33013 13.3626 8.33013C12.6557 8.33013 12.0413 8.44976 11.5193 8.69445C10.9973 8.93913 10.5623 9.27082 10.2143 9.69495C9.86631 10.1191 9.60531 10.6084 9.43674 11.1685C9.26818 11.7286 9.18662 12.3213 9.18662 12.9466V13.2456C9.18662 13.8764 9.27362 14.4691 9.44218 15.0291C9.61074 15.5892 9.87174 16.0786 10.2197 16.4973C10.5677 16.9159 11.0027 17.2476 11.5302 17.4923C12.0576 17.737 12.6721 17.8566 13.3789 17.8566C13.8901 17.8566 14.3686 17.7751 14.8144 17.6065C15.2603 17.4379 15.6518 17.2096 15.9889 16.9159C16.3261 16.6223 16.5979 16.2852 16.7937 15.8937C16.9894 15.5022 17.1036 15.0889 17.1199 14.6431H15.1733C15.1624 14.8714 15.1081 15.0781 15.0102 15.2738C14.9123 15.4696 14.7818 15.6327 14.6187 15.7686C14.4556 15.9046 14.2652 16.0133 14.0477 16.0894C13.8411 16.1601 13.6236 16.1982 13.3898 16.1982C12.9983 16.1873 12.6775 16.1058 12.4165 15.9426C12.1446 15.7686 11.9271 15.5457 11.7694 15.2684C11.6117 14.9911 11.503 14.6757 11.4432 14.3168C11.3834 13.9579 11.3616 13.6099 11.3616 13.2456V12.9466C11.3616 12.5768 11.3888 12.2125 11.4486 11.8591Z" fill="white" fill-opacity="0.86"/>
</g>
</g>
<defs>
<clipPath id="clip0_1_131">
<rect width="26.1" height="26.1" fill="white" transform="translate(0.486572 0.043457)"/>
</clipPath>
</defs>
</svg>
