<svg width="44" height="43" viewBox="0 0 44 43" fill="none" xmlns="http://www.w3.org/2000/svg">
<path d="M15.048 20.2872C14.1618 20.2901 13.2913 20.5152 12.5202 20.9409C13.6058 18.2028 15.4063 15.7884 17.7435 13.9366C17.8772 13.8293 17.9879 13.6974 18.0693 13.5483C18.1507 13.3993 18.2012 13.2362 18.2179 13.0681C18.2346 12.9001 18.2172 12.7305 18.1666 12.5691C18.116 12.4076 18.0333 12.2575 17.9232 12.1272C17.8131 11.9968 17.6777 11.889 17.5248 11.8096C17.3718 11.7303 17.2044 11.6811 17.032 11.6649C16.8595 11.6486 16.6855 11.6656 16.5198 11.7149C16.3541 11.7641 16.2 11.8447 16.0663 11.952C11.2743 15.746 9.14185 20.9993 9.14185 24.2563C9.15011 25.4079 9.5023 26.5322 10.1554 27.492C10.8085 28.4518 11.7343 29.2056 12.8197 29.6612C13.5222 29.9928 14.2914 30.1683 15.0719 30.1749C15.759 30.2074 16.4456 30.1037 17.0902 29.8699C17.7348 29.6361 18.324 29.2772 18.822 28.8149C19.3201 28.3527 19.7166 27.7966 19.9875 27.1806C20.2584 26.5645 20.3981 25.9013 20.3981 25.231C20.3981 24.5608 20.2584 23.8975 19.9875 23.2815C19.7166 22.6654 19.3201 22.1094 18.822 21.6471C18.324 21.1848 17.7348 20.8259 17.0902 20.5921C16.4456 20.3584 15.759 20.2546 15.0719 20.2872H15.048Z" fill="white"/>
<path d="M28.3937 20.2872C27.5073 20.289 26.6366 20.5142 25.8659 20.9409C26.951 18.2057 28.7468 15.7921 31.0772 13.9366C31.2231 13.8342 31.3459 13.7037 31.4381 13.5533C31.5302 13.4028 31.5899 13.2356 31.6132 13.0619C31.6366 12.8882 31.6233 12.7116 31.574 12.5431C31.5248 12.3746 31.4406 12.2177 31.3268 12.0821C31.213 11.9464 31.0719 11.8349 30.9122 11.7544C30.7525 11.6739 30.5776 11.6261 30.3982 11.6139C30.2189 11.6017 30.0388 11.6254 29.8692 11.6836C29.6996 11.7417 29.544 11.8331 29.412 11.9521C24.62 15.746 22.4876 20.9993 22.4876 24.2563C22.4932 25.3948 22.8351 26.5077 23.4725 27.4621C24.1098 28.4164 25.0155 29.1717 26.0816 29.6379C26.8018 29.9792 27.5928 30.1549 28.3937 30.1515C29.0807 30.1841 29.7673 30.0803 30.412 29.8466C31.0566 29.6128 31.6458 29.2539 32.1438 28.7916C32.6418 28.3293 33.0383 27.7733 33.3092 27.1572C33.5801 26.5412 33.7198 25.8779 33.7198 25.2077C33.7198 24.5374 33.5801 23.8742 33.3092 23.2581C33.0383 22.6421 32.6418 22.086 32.1438 21.6238C31.6458 21.1615 31.0566 20.8026 30.412 20.5688C29.7673 20.335 29.0807 20.2313 28.3937 20.2638V20.2872Z" fill="white"/>
</svg>
