<svg width="27" height="27" viewBox="0 0 27 27" fill="none" xmlns="http://www.w3.org/2000/svg">
<path d="M8.87676 12.3578C8.33519 12.3595 7.80321 12.4971 7.33201 12.7573C7.99541 11.084 9.09571 9.60851 10.524 8.47686C10.6057 8.41128 10.6734 8.33065 10.7231 8.23959C10.7729 8.14853 10.8037 8.04881 10.8139 7.94613C10.8241 7.84345 10.8135 7.73982 10.7826 7.64115C10.7517 7.54249 10.7011 7.45072 10.6338 7.37109C10.5665 7.29145 10.4838 7.22552 10.3903 7.17704C10.2969 7.12857 10.1946 7.0985 10.0892 7.08857C9.98381 7.07863 9.87746 7.08902 9.7762 7.11913C9.67495 7.14924 9.58077 7.1985 9.49905 7.26408C6.57061 9.58263 5.26746 12.7929 5.26746 14.7833C5.2725 15.4871 5.48773 16.1742 5.88685 16.7607C6.28597 17.3473 6.85173 17.8079 7.51503 18.0864C7.94432 18.289 8.41442 18.3962 8.8914 18.4003C9.31124 18.4201 9.73085 18.3567 10.1248 18.2139C10.5187 18.071 10.8788 17.8517 11.1831 17.5692C11.4875 17.2867 11.7298 16.9469 11.8953 16.5704C12.0609 16.1939 12.1463 15.7886 12.1463 15.379C12.1463 14.9694 12.0609 14.5641 11.8953 14.1876C11.7298 13.8111 11.4875 13.4713 11.1831 13.1888C10.8788 12.9063 10.5187 12.687 10.1248 12.5441C9.73085 12.4013 9.31124 12.3379 8.8914 12.3578H8.87676Z" fill="white"/>
<path d="M17.0325 12.3577C16.4908 12.3589 15.9587 12.4965 15.4877 12.7572C16.1508 11.0857 17.2482 9.61073 18.6724 8.47683C18.7615 8.41422 18.8366 8.3345 18.8929 8.24257C18.9492 8.15064 18.9857 8.04845 19 7.94229C19.0143 7.83612 19.0061 7.72823 18.976 7.62526C18.9459 7.52228 18.8945 7.4264 18.8249 7.3435C18.7554 7.26061 18.6692 7.19247 18.5716 7.14326C18.474 7.09406 18.3671 7.06484 18.2575 7.05739C18.1478 7.04995 18.0378 7.06445 17.9342 7.09999C17.8305 7.13553 17.7354 7.19136 17.6548 7.26405C14.7263 9.5826 13.4232 12.7929 13.4232 14.7833C13.4266 15.4791 13.6356 16.1592 14.025 16.7424C14.4145 17.3256 14.968 17.7872 15.6195 18.0721C16.0596 18.2806 16.543 18.388 17.0325 18.386C17.4523 18.4058 17.8719 18.3424 18.2658 18.1996C18.6598 18.0567 19.0198 17.8374 19.3242 17.5549C19.6285 17.2724 19.8708 16.9326 20.0364 16.5561C20.2019 16.1796 20.2873 15.7743 20.2873 15.3647C20.2873 14.9551 20.2019 14.5498 20.0364 14.1733C19.8708 13.7968 19.6285 13.457 19.3242 13.1745C19.0198 12.892 18.6598 12.6727 18.2658 12.5298C17.8719 12.387 17.4523 12.3236 17.0325 12.3435V12.3577Z" fill="white"/>
</svg>
