<svg width="27" height="27" viewBox="0 0 27 27" fill="none" xmlns="http://www.w3.org/2000/svg">
<path d="M9.14766 12.2717C8.6061 12.2735 8.07411 12.4111 7.60291 12.6712C8.26632 10.998 9.36661 9.52248 10.7949 8.39083C10.8766 8.32525 10.9443 8.24463 10.994 8.15356C11.0438 8.0625 11.0746 7.96278 11.0848 7.8601C11.095 7.75742 11.0844 7.65379 11.0535 7.55513C11.0226 7.45646 10.972 7.36469 10.9047 7.28506C10.8374 7.20542 10.7547 7.13949 10.6612 7.09101C10.5678 7.04254 10.4655 7.01248 10.3601 7.00254C10.2547 6.9926 10.1484 7.00299 10.0471 7.0331C9.94585 7.06321 9.85168 7.11247 9.76996 7.17805C6.84152 9.4966 5.53836 12.7069 5.53836 14.6973C5.54341 15.401 5.75863 16.0882 6.15775 16.6747C6.55688 17.2613 7.12263 17.7219 7.78594 18.0003C8.21522 18.203 8.68533 18.3102 9.16231 18.3142C9.58214 18.3341 10.0017 18.2707 10.3957 18.1278C10.7896 17.985 11.1497 17.7657 11.454 17.4831C11.7584 17.2006 12.0007 16.8608 12.1662 16.4844C12.3318 16.1079 12.4172 15.7026 12.4172 15.293C12.4172 14.8834 12.3318 14.4781 12.1662 14.1016C12.0007 13.7251 11.7584 13.3853 11.454 13.1028C11.1497 12.8203 10.7896 12.601 10.3957 12.4581C10.0017 12.3152 9.58214 12.2518 9.16231 12.2717H9.14766Z" fill="white"/>
<path d="M17.3034 12.2717C16.7617 12.2728 16.2296 12.4105 15.7586 12.6712C16.4218 10.9997 17.5192 9.52471 18.9433 8.39081C19.0324 8.3282 19.1075 8.24847 19.1638 8.15654C19.2201 8.06461 19.2566 7.96242 19.2709 7.85626C19.2852 7.7501 19.277 7.6422 19.2469 7.53923C19.2168 7.43625 19.1654 7.34037 19.0958 7.25747C19.0263 7.17458 18.9401 7.10644 18.8425 7.05723C18.7449 7.00803 18.638 6.97881 18.5284 6.97137C18.4188 6.96392 18.3087 6.97842 18.2051 7.01396C18.1014 7.0495 18.0063 7.10533 17.9257 7.17803C14.9972 9.49658 13.6941 12.7069 13.6941 14.6973C13.6975 15.3931 13.9065 16.0732 14.2959 16.6564C14.6854 17.2395 15.2389 17.7012 15.8904 17.986C16.3305 18.1946 16.8139 18.302 17.3034 18.2999C17.7232 18.3198 18.1428 18.2564 18.5367 18.1136C18.9307 17.9707 19.2907 17.7514 19.5951 17.4689C19.8994 17.1864 20.1417 16.8466 20.3073 16.4701C20.4729 16.0936 20.5582 15.6883 20.5582 15.2787C20.5582 14.8691 20.4729 14.4638 20.3073 14.0873C20.1417 13.7108 19.8994 13.371 19.5951 13.0885C19.2907 12.806 18.9307 12.5867 18.5367 12.4438C18.1428 12.301 17.7232 12.2375 17.3034 12.2574V12.2717Z" fill="white"/>
</svg>
