<svg width="54" height="44" viewBox="0 0 54 44" fill="none" xmlns="http://www.w3.org/2000/svg">
<g clip-path="url(#clip0_1_256)">
<path d="M26.7792 9.73443C25.9043 9.73443 25.0652 9.45518 24.4465 8.95812C23.8279 8.46105 23.4803 7.78689 23.4803 7.08393V3.54992C23.4803 2.84696 23.8279 2.1728 24.4465 1.67573C25.0652 1.17866 25.9043 0.899414 26.7792 0.899414C27.6541 0.899414 28.4932 1.17866 29.1119 1.67573C29.7305 2.1728 30.0781 2.84696 30.0781 3.54992V7.08393C30.0781 7.78689 29.7305 8.46105 29.1119 8.95812C28.4932 9.45518 27.6541 9.73443 26.7792 9.73443V9.73443ZM30.0781 40.657V37.123C30.0781 36.42 29.7305 35.7459 29.1119 35.2488C28.4932 34.7517 27.6541 34.4725 26.7792 34.4725C25.9043 34.4725 25.0652 34.7517 24.4465 35.2488C23.8279 35.7459 23.4803 36.42 23.4803 37.123V40.657C23.4803 41.36 23.8279 42.0341 24.4465 42.5312C25.0652 43.0283 25.9043 43.3075 26.7792 43.3075C27.6541 43.3075 28.4932 43.0283 29.1119 42.5312C29.7305 42.0341 30.0781 41.36 30.0781 40.657ZM11.3844 22.1035C11.3844 21.4005 11.0368 20.7263 10.4182 20.2293C9.79949 19.7322 8.9604 19.453 8.08548 19.453H3.68696C2.81203 19.453 1.97295 19.7322 1.35429 20.2293C0.735623 20.7263 0.388062 21.4005 0.388062 22.1035C0.388062 22.8064 0.735623 23.4806 1.35429 23.9777C1.97295 24.4747 2.81203 24.754 3.68696 24.754H8.08548C8.9604 24.754 9.79949 24.4747 10.4182 23.9777C11.0368 23.4806 11.3844 22.8064 11.3844 22.1035V22.1035ZM53.1704 22.1035C53.1704 21.4005 52.8228 20.7263 52.2041 20.2293C51.5855 19.7322 50.7464 19.453 49.8715 19.453H45.4729C44.598 19.453 43.7589 19.7322 43.1403 20.2293C42.5216 20.7263 42.174 21.4005 42.174 22.1035C42.174 22.8064 42.5216 23.4806 43.1403 23.9777C43.7589 24.4747 44.598 24.754 45.4729 24.754H49.8715C50.7464 24.754 51.5855 24.4747 52.2041 23.9777C52.8228 23.4806 53.1704 22.8064 53.1704 22.1035ZM38.8224 10.3158L40.9798 7.23589C41.3922 6.62459 41.489 5.90758 41.2495 5.23944C41.01 4.57129 40.4533 4.00552 39.6995 3.66408C38.9456 3.32264 38.055 3.23287 37.2195 3.41414C36.384 3.5954 35.6707 4.03318 35.2332 4.63309L33.0735 7.71298C32.8606 8.01634 32.7242 8.35044 32.6721 8.69618C32.62 9.04193 32.6532 9.39253 32.7698 9.72795C32.8864 10.0634 33.0842 10.377 33.3518 10.651C33.6194 10.925 33.9515 11.1539 34.3293 11.3247C34.8219 11.5498 35.379 11.668 35.9457 11.6675C36.5314 11.6677 37.1066 11.5425 37.6121 11.305C38.1177 11.0674 38.5354 10.726 38.8224 10.3158V10.3158ZM18.3252 39.5738L20.4849 36.4939C20.9145 35.8814 21.0237 35.1569 20.7884 34.4797C20.5531 33.8026 19.9926 33.2282 19.2302 32.8831C18.4679 32.5379 17.5661 32.4502 16.7233 32.6393C15.8805 32.8283 15.1656 33.2786 14.736 33.8911L12.5786 36.971C12.1662 37.5823 12.0694 38.2993 12.3089 38.9675C12.5484 39.6356 13.1051 40.2014 13.8589 40.5428C14.6128 40.8843 15.5035 40.974 16.3389 40.7928C17.1744 40.6115 17.8878 40.1737 18.3252 39.5738V39.5738ZM13.3637 16.0373C13.7932 15.425 13.9024 14.7008 13.6673 14.0238C13.4322 13.3468 12.8721 12.7726 12.1101 12.4273L8.27462 10.6939C7.51377 10.3626 6.62137 10.2848 5.78978 10.4772C4.95818 10.6697 4.25401 11.1169 3.82904 11.7226C3.40407 12.3283 3.29235 13.0439 3.51796 13.7152C3.74356 14.3865 4.28843 14.9596 5.0351 15.3111L8.86842 17.0463C9.24599 17.2174 9.66182 17.3269 10.0921 17.3688C10.5225 17.4107 10.9588 17.384 11.3763 17.2903C11.7938 17.1966 12.1842 17.0377 12.5252 16.8227C12.8662 16.6077 13.1511 16.3409 13.3637 16.0373ZM49.7791 32.5058C50.2086 31.8935 50.3178 31.1692 50.0827 30.4923C49.8476 29.8153 49.2875 29.241 48.5255 28.8958L44.6922 27.1606C44.3147 26.9897 43.899 26.8802 43.4689 26.8384C43.0388 26.7966 42.6026 26.8232 42.1853 26.9168C41.7679 27.0104 41.3776 27.1692 41.0367 27.384C40.6957 27.5988 40.4107 27.8654 40.198 28.1687C39.9853 28.472 39.849 28.806 39.797 29.1516C39.7449 29.4972 39.7781 29.8476 39.8946 30.1829C40.1299 30.8601 40.6903 31.4344 41.4527 31.7796L45.286 33.513C46.0481 33.8581 46.9495 33.9458 47.7921 33.7569C48.6347 33.568 49.3494 33.118 49.7791 32.5058V32.5058ZM19.2291 11.3247C19.9915 10.9798 20.5521 10.4057 20.7876 9.7287C21.0231 9.0517 20.9142 8.32726 20.4849 7.71475L18.3252 4.63309C17.8878 4.03318 17.1744 3.5954 16.3389 3.41414C15.5035 3.23287 14.6128 3.32264 13.8589 3.66408C13.1051 4.00552 12.5484 4.57129 12.3089 5.23944C12.0694 5.90758 12.1662 6.62459 12.5786 7.23589L14.736 10.3158C15.0233 10.7256 15.4412 11.0667 15.9467 11.304C16.4522 11.5412 17.0272 11.6661 17.6127 11.6658C18.1792 11.6667 18.7363 11.5492 19.2291 11.3247V11.3247ZM39.7263 40.5828C40.4882 40.2376 41.0483 39.6633 41.2834 38.9863C41.5185 38.3094 41.4093 37.5851 40.9798 36.9728L38.8224 33.8929C38.3928 33.2804 37.678 32.8301 36.8351 32.641C35.9923 32.452 35.0905 32.5397 34.3282 32.8848C33.5658 33.23 33.0054 33.8043 32.7701 34.4815C32.5348 35.1587 32.6439 35.8832 33.0735 36.4957L35.2332 39.5756C35.6628 40.1878 36.3776 40.6378 37.2201 40.8267C38.0627 41.0156 38.9642 40.9278 39.7263 40.5828V40.5828ZM44.69 17.0463L48.5233 15.3111C49.27 14.9596 49.8149 14.3865 50.0405 13.7152C50.2661 13.0439 50.1543 12.3283 49.7294 11.7226C49.3044 11.1169 48.6002 10.6697 47.7686 10.4772C46.9371 10.2848 46.0446 10.3626 45.2838 10.6939L41.4505 12.4273C40.6881 12.7725 40.1277 13.3468 39.8924 14.024C39.6571 14.7012 39.7662 15.4257 40.1958 16.0382C40.6254 16.6507 41.3402 17.101 42.1831 17.2901C43.0259 17.4791 43.9277 17.3914 44.69 17.0463ZM8.27462 33.513L12.1079 31.7796C12.4854 31.6087 12.8173 31.3797 13.0846 31.1058C13.352 30.8318 13.5495 30.5182 13.666 30.1829C13.7826 29.8476 13.8157 29.4972 13.7637 29.1516C13.7116 28.806 13.5753 28.472 13.3626 28.1687C13.1499 27.8654 12.8649 27.5988 12.524 27.384C12.183 27.1692 11.7927 27.0104 11.3754 26.9168C10.958 26.8232 10.5219 26.7966 10.0917 26.8384C9.66157 26.8802 9.24589 26.9897 8.86842 27.1606L5.0351 28.8958C4.40049 29.1839 3.90248 29.6327 3.61886 30.1721C3.33523 30.7116 3.28195 31.3113 3.46735 31.8777C3.65274 32.4441 4.06637 32.9451 4.64363 33.3027C5.22089 33.6602 5.92928 33.8541 6.65816 33.854C7.2247 33.8551 7.78181 33.7376 8.27462 33.513V33.513Z" fill="white"/>
</g>
<defs>
<clipPath id="clip0_1_256">
<rect width="52.7823" height="42.4081" fill="white" transform="translate(0.388062 0.899414)"/>
</clipPath>
</defs>
</svg>
