<svg width="24" height="24" viewBox="0 0 24 24" fill="none" xmlns="http://www.w3.org/2000/svg">
<g clip-path="url(#clip0_1_65)">
<path d="M7.99987 22.3601C9.062 23.4059 10.4912 23.9945 11.9818 24.0001C13.4723 24.0057 14.9059 23.4278 15.9759 22.3901L19.7829 18.8531C21.8417 16.7761 22.9969 13.97 22.9969 11.0456C22.9969 8.12109 21.8417 5.31499 19.7829 3.23806C18.7636 2.21197 17.5514 1.39764 16.216 0.841939C14.8807 0.286241 13.4487 0.000156404 12.0024 0.000156404C10.556 0.000156404 9.124 0.286241 7.78869 0.841939C6.45338 1.39764 5.24118 2.21197 4.22187 3.23806C2.15853 5.32354 1.0047 8.14104 1.01257 11.0747C1.02044 14.0084 2.18937 16.8197 4.26387 18.8941L7.99987 22.3601ZM6.34587 5.35406C7.08641 4.6081 7.96725 4.01606 8.93763 3.61204C9.90801 3.20803 10.9487 3.00003 11.9999 3.00003C13.051 3.00003 14.0917 3.20803 15.0621 3.61204C16.0325 4.01606 16.9133 4.6081 17.6539 5.35406V5.35406C19.1522 6.85913 19.9972 8.89392 20.0058 11.0176C20.0144 13.1413 19.1859 15.1829 17.6999 16.7001L13.8999 20.2251C13.3821 20.7187 12.6926 20.9915 11.9773 20.9859C11.262 20.9803 10.5768 20.6967 10.0669 20.1951L6.34587 16.7371C4.84491 15.2231 4.00276 13.1775 4.00276 11.0456C4.00276 8.91365 4.84491 6.86805 6.34587 5.35406V5.35406ZM6.99987 11.0001C6.99987 10.6022 7.1579 10.2207 7.43921 9.9394C7.72051 9.6581 8.10204 9.50006 8.49987 9.50006H10.4999V7.50006C10.4999 7.10224 10.6579 6.72071 10.9392 6.4394C11.2205 6.1581 11.602 6.00006 11.9999 6.00006C12.3977 6.00006 12.7792 6.1581 13.0605 6.4394C13.3418 6.72071 13.4999 7.10224 13.4999 7.50006V9.50006H15.4999C15.8977 9.50006 16.2792 9.6581 16.5605 9.9394C16.8418 10.2207 16.9999 10.6022 16.9999 11.0001C16.9999 11.3979 16.8418 11.7794 16.5605 12.0607C16.2792 12.342 15.8977 12.5001 15.4999 12.5001H13.4999V14.5001C13.4999 14.8979 13.3418 15.2794 13.0605 15.5607C12.7792 15.842 12.3977 16.0001 11.9999 16.0001C11.602 16.0001 11.2205 15.842 10.9392 15.5607C10.6579 15.2794 10.4999 14.8979 10.4999 14.5001V12.5001H8.49987C8.10204 12.5001 7.72051 12.342 7.43921 12.0607C7.1579 11.7794 6.99987 11.3979 6.99987 11.0001Z" fill="#374957"/>
</g>
<defs>
<clipPath id="clip0_1_65">
<rect width="24" height="24" fill="white"/>
</clipPath>
</defs>
</svg>
