<svg width="19" height="19" viewBox="0 0 19 19" fill="none" xmlns="http://www.w3.org/2000/svg">
<path d="M13.9436 7.42981L11.2517 4.73794C10.7512 4.26024 10.0858 3.99371 9.39386 3.99371C8.70191 3.99371 8.03656 4.26024 7.53597 4.73794L4.8441 7.42981C4.63297 7.64105 4.51439 7.9275 4.51447 8.22615C4.51454 8.52481 4.63324 8.81121 4.84448 9.02234C5.05571 9.23347 5.34216 9.35205 5.64082 9.35198C5.93947 9.35191 6.22587 9.2332 6.437 9.02197L8.26787 7.1911V14.5423C8.26787 14.841 8.3865 15.1274 8.59766 15.3385C8.80883 15.5497 9.09523 15.6683 9.39386 15.6683C9.69249 15.6683 9.97889 15.5497 10.1901 15.3385C10.4012 15.1274 10.5198 14.841 10.5198 14.5423V7.1911L12.3507 9.02197C12.4553 9.12656 12.5794 9.20953 12.716 9.26616C12.8526 9.32278 12.999 9.35194 13.1469 9.35198C13.2948 9.35201 13.4412 9.32292 13.5779 9.26636C13.7145 9.2098 13.8386 9.12688 13.9432 9.02234C14.0478 8.9178 14.1308 8.79368 14.1874 8.65707C14.2441 8.52046 14.2732 8.37403 14.2733 8.22615C14.2733 8.07828 14.2442 7.93184 14.1876 7.7952C14.1311 7.65856 14.0482 7.5344 13.9436 7.42981Z" fill="#82FFB7"/>
</svg>
