<svg width="54" height="43" viewBox="0 0 54 43" fill="none" xmlns="http://www.w3.org/2000/svg">
<g clip-path="url(#clip0_1_249)">
<path d="M41.3735 0.404297H12.7831C9.57628 0.40757 6.502 1.43253 4.23445 3.2544C1.96691 5.07627 0.691207 7.54631 0.687134 10.1228L0.687134 26.0259C0.691207 28.6024 1.96691 31.0724 4.23445 32.8943C6.502 34.7161 9.57628 35.7411 12.7831 35.7444H15.9456L24.9626 41.8017C25.556 42.2002 26.3049 42.4185 27.0783 42.4185C27.8517 42.4185 28.6006 42.2002 29.194 41.8017L38.2109 35.7444H41.3735C44.5803 35.7411 47.6546 34.7161 49.9221 32.8943C52.1897 31.0724 53.4654 28.6024 53.4694 26.0259V10.1228C53.4654 7.54631 52.1897 5.07627 49.9221 3.2544C47.6546 1.43253 44.5803 0.40757 41.3735 0.404297V0.404297ZM46.8716 26.0259C46.8716 27.1974 46.2924 28.3211 45.2613 29.1495C44.2302 29.9779 42.8317 30.4434 41.3735 30.4434H37.0124C36.2387 30.4438 35.4898 30.6627 34.8967 31.0618L27.0783 36.3134L19.2599 31.0618C18.6668 30.6627 17.9179 30.4438 17.1442 30.4434H12.7831C11.3249 30.4434 9.9264 29.9779 8.89529 29.1495C7.86419 28.3211 7.28492 27.1974 7.28492 26.0259V10.1228C7.28492 8.95122 7.86419 7.82761 8.89529 6.99917C9.9264 6.17072 11.3249 5.70531 12.7831 5.70531H41.3735C42.8317 5.70531 44.2302 6.17072 45.2613 6.99917C46.2924 7.82761 46.8716 8.95122 46.8716 10.1228V26.0259Z" fill="white"/>
<path d="M17.1816 16.3073H23.7794C24.6543 16.3073 25.4934 16.0281 26.1121 15.531C26.7307 15.0339 27.0783 14.3598 27.0783 13.6568C27.0783 12.9538 26.7307 12.2797 26.1121 11.7826C25.4934 11.2855 24.6543 11.0063 23.7794 11.0063H17.1816C16.3067 11.0063 15.4676 11.2855 14.8489 11.7826C14.2303 12.2797 13.8827 12.9538 13.8827 13.6568C13.8827 14.3598 14.2303 15.0339 14.8489 15.531C15.4676 16.0281 16.3067 16.3073 17.1816 16.3073V16.3073Z" fill="white"/>
<path d="M36.975 19.8417H17.1816C16.3067 19.8417 15.4676 20.1209 14.8489 20.618C14.2303 21.1151 13.8827 21.7892 13.8827 22.4922C13.8827 23.1951 14.2303 23.8693 14.8489 24.3664C15.4676 24.8634 16.3067 25.1427 17.1816 25.1427H36.975C37.8499 25.1427 38.689 24.8634 39.3076 24.3664C39.9263 23.8693 40.2739 23.1951 40.2739 22.4922C40.2739 21.7892 39.9263 21.1151 39.3076 20.618C38.689 20.1209 37.8499 19.8417 36.975 19.8417Z" fill="white"/>
</g>
<defs>
<clipPath id="clip0_1_249">
<rect width="52.7823" height="42.4081" fill="white" transform="translate(0.687134 0.404297)"/>
</clipPath>
</defs>
</svg>
