<svg width="54" height="44" viewBox="0 0 54 44" fill="none" xmlns="http://www.w3.org/2000/svg">
<g clip-path="url(#clip0_1_248)">
<path d="M17.8818 40.4097C20.2177 42.2576 23.3609 43.2978 26.639 43.3077C29.9171 43.3176 33.07 42.2965 35.4231 40.4627L43.7957 34.2128C48.3237 30.5429 50.8642 25.5845 50.8642 20.4169C50.8642 15.2494 48.3237 10.291 43.7957 6.62105C41.554 4.80794 38.888 3.36901 35.9513 2.38709C33.0146 1.40517 29.8652 0.899658 26.6843 0.899658C23.5035 0.899658 20.3541 1.40517 17.4174 2.38709C14.4807 3.36901 11.8147 4.80794 9.57298 6.62105C5.03516 10.3061 2.49758 15.2846 2.51489 20.4685C2.5322 25.6523 5.10299 30.6198 9.66535 34.2853L17.8818 40.4097ZM14.2442 10.36C15.8729 9.04192 17.8101 7.99577 19.9442 7.28187C22.0783 6.56798 24.3671 6.20044 26.6788 6.20044C28.9905 6.20044 31.2794 6.56798 33.4135 7.28187C35.5476 7.99577 37.4848 9.04192 39.1135 10.36V10.36C42.4086 13.0195 44.267 16.615 44.2859 20.3676C44.3048 24.1201 42.4828 27.7276 39.2146 30.4085L30.8574 36.6371C29.7187 37.5094 28.2024 37.9915 26.6292 37.9816C25.056 37.9717 23.5492 37.4706 22.4277 36.5841L14.2442 30.4738C10.9432 27.7986 9.09112 24.184 9.09112 20.4169C9.09112 16.6498 10.9432 13.0353 14.2442 10.36V10.36ZM15.6825 20.3365C15.6825 19.6336 16.0301 18.9594 16.6488 18.4623C17.2674 17.9653 18.1065 17.686 18.9814 17.686H23.38V14.152C23.38 13.4491 23.7275 12.7749 24.3462 12.2778C24.9648 11.7808 25.8039 11.5015 26.6788 11.5015C27.5538 11.5015 28.3929 11.7808 29.0115 12.2778C29.6302 12.7749 29.9777 13.4491 29.9777 14.152V17.686H34.3763C35.2512 17.686 36.0903 17.9653 36.7089 18.4623C37.3276 18.9594 37.6752 19.6336 37.6752 20.3365C37.6752 21.0395 37.3276 21.7137 36.7089 22.2107C36.0903 22.7078 35.2512 22.987 34.3763 22.987H29.9777V26.521C29.9777 27.224 29.6302 27.8982 29.0115 28.3952C28.3929 28.8923 27.5538 29.1716 26.6788 29.1716C25.8039 29.1716 24.9648 28.8923 24.3462 28.3952C23.7275 27.8982 23.38 27.224 23.38 26.521V22.987H18.9814C18.1065 22.987 17.2674 22.7078 16.6488 22.2107C16.0301 21.7137 15.6825 21.0395 15.6825 20.3365Z" fill="white"/>
</g>
<defs>
<clipPath id="clip0_1_248">
<rect width="52.7823" height="42.4081" fill="white" transform="translate(0.287964 0.899414)"/>
</clipPath>
</defs>
</svg>
