<svg width="295" height="34" viewBox="0 0 295 34" fill="none" xmlns="http://www.w3.org/2000/svg">
<path d="M270.875 7.43982H264.019V27.201H270.875V7.43982Z" fill="white" fill-opacity="0.79"/>
<path d="M287.157 7.43982C282.373 7.43982 281.55 8.87674 281.16 10.2628V7.43982H274.303V27.201H281.16V15.9089C281.16 14.0782 282.365 13.0859 284.588 13.0859C286.758 13.0859 288.016 14.057 288.016 15.9089V27.201H294.872V17.3204C294.872 11.6744 293.979 7.43982 287.157 7.43982Z" fill="white" fill-opacity="0.79"/>
<path d="M267.447 6.02849C269.34 6.02849 270.875 4.76458 270.875 3.20547C270.875 1.64636 269.34 0.382446 267.447 0.382446C265.554 0.382446 264.019 1.64636 264.019 3.20547C264.019 4.76458 265.554 6.02849 267.447 6.02849Z" fill="white" fill-opacity="0.79"/>
<path d="M37.5923 9.01365C37.5002 8.91906 37.3887 8.83869 37.2629 8.77623C37.5825 8.2656 37.8048 7.71699 37.9217 7.14993C37.9669 6.92273 37.9314 6.68953 37.8195 6.47876C37.7076 6.26799 37.5242 6.08874 37.2915 5.96285C37.0577 5.83521 36.7838 5.76718 36.5038 5.76718C36.2239 5.76718 35.95 5.83521 35.7162 5.96285C34.7228 6.49785 33.614 6.86869 32.4508 7.05497C31.1143 6.0151 29.4228 5.34293 27.6078 5.13044C25.7927 4.91795 23.9428 5.17551 22.3111 5.86788C20.6079 6.60691 19.2483 7.79305 18.445 9.24073C17.6416 10.6884 17.4399 12.316 17.8714 13.8688C17.9473 14.1836 18.1711 14.4606 18.4934 14.6387C18.8157 14.8168 19.2101 14.8814 19.59 14.8185C19.9698 14.7555 20.3039 14.5701 20.5188 14.3029C20.7336 14.0358 20.8117 13.7088 20.7357 13.394C20.4391 12.3631 20.5587 11.2799 21.0761 10.3107C21.5934 9.34155 22.4801 8.53977 23.6 8.02837C24.8071 7.52051 26.1842 7.36149 27.5127 7.57656C28.8412 7.79163 30.045 8.36847 30.9327 9.21545C31.0951 9.35074 31.2944 9.45159 31.5138 9.50945C31.7332 9.56731 31.9662 9.58048 32.193 9.54784H32.5511C32.3886 9.68726 32.2698 9.85755 32.205 10.0438C32.1403 10.2301 32.1315 10.4266 32.1796 10.6164C32.2276 10.8061 32.331 10.9831 32.4806 11.1321C32.6302 11.2811 32.8216 11.3974 33.038 11.4709C32.8542 11.5959 32.7109 11.7568 32.6208 11.9392C32.5308 12.1216 32.497 12.3196 32.5224 12.5155C32.76 15.0446 32.2459 17.5835 31.0249 19.9096C29.804 22.2358 27.9135 24.2783 25.5191 25.8583C23.0633 27.605 20.0917 28.7794 16.9083 29.2612C13.725 29.743 10.4443 29.515 7.40225 28.6005C9.8211 28.2646 12.0756 27.3673 13.9043 26.0127C14.0888 25.838 14.2075 25.6224 14.2457 25.3924C14.2839 25.1624 14.2399 24.9282 14.1191 24.7187C14 24.5112 13.8107 24.3368 13.5743 24.2166C13.3378 24.0965 13.0644 24.0359 12.7872 24.0421C11.9705 24.0368 11.1647 23.8868 10.4236 23.6023C9.68261 23.3177 9.02357 22.905 8.4907 22.3921C8.99003 22.3124 9.47256 22.1724 9.92286 21.9766C10.1921 21.8669 10.413 21.6898 10.5544 21.4704C10.6957 21.251 10.7503 21.0004 10.7106 20.7539C10.6721 20.5159 10.5474 20.2933 10.3531 20.1152C10.1588 19.9372 9.9039 19.8122 9.62211 19.7567C8.68237 19.5704 7.80658 19.2082 7.06184 18.6979C6.31711 18.1876 5.72319 17.5427 5.32561 16.8128C5.66933 16.8128 6.01305 16.8721 6.38541 16.884C6.68734 16.9025 6.98859 16.8413 7.24591 16.7091C7.50322 16.5768 7.70336 16.3804 7.81758 16.148C7.91989 15.9157 7.93211 15.6627 7.85251 15.4243C7.77291 15.1859 7.60548 14.9741 7.37361 14.8185C4.98189 13.0141 4.3947 11.0792 4.73842 9.71403C7.43973 12.0841 10.9287 13.7366 14.7636 14.4624C14.9517 14.492 15.1449 14.4906 15.3324 14.4583C15.5198 14.426 15.6977 14.3634 15.856 14.2741C16.0142 14.1849 16.1497 14.0706 16.2547 13.9379C16.3597 13.8052 16.4321 13.6567 16.4679 13.5008C16.5036 13.3449 16.5019 13.1847 16.463 13.0294C16.424 12.874 16.3485 12.7265 16.2408 12.5954C16.1331 12.4642 15.9952 12.3519 15.8352 12.2649C15.6751 12.1778 15.4959 12.1178 15.3078 12.0882C11.4257 11.3342 7.97595 9.49366 5.54044 6.8769C5.41164 6.74159 5.24884 6.63114 5.06335 6.55324C4.87786 6.47534 4.67412 6.43186 4.46631 6.42581C4.25687 6.41938 4.04828 6.45113 3.85526 6.51882C3.66224 6.5865 3.4895 6.68848 3.34922 6.81755C2.42167 7.83081 1.88332 9.05191 1.80414 10.3221C1.72497 11.5924 2.10863 12.8529 2.90525 13.94H2.77636C2.56465 14.0354 2.38542 14.1736 2.25524 14.3416C2.12506 14.5097 2.04815 14.7023 2.03163 14.9016C2.00827 15.9006 2.24574 16.892 2.72777 17.8079C3.2098 18.7238 3.92499 19.5424 4.82435 20.2078C4.65734 20.3686 4.54535 20.5634 4.50001 20.7722C4.45467 20.981 4.47765 21.196 4.56656 21.3949C5.39596 23.2278 7.01972 24.7388 9.12085 25.6328C6.88204 26.3311 4.50964 26.689 2.11756 26.6893C1.80501 26.6919 1.50208 26.7793 1.255 26.9379C1.00792 27.0966 0.830256 27.3179 0.749113 27.5681C0.66797 27.8183 0.687806 28.0837 0.805594 28.3236C0.923381 28.5636 1.13265 28.7651 1.40148 28.8973C5.06838 30.7652 9.27157 31.7858 13.5749 31.8531C18.6122 31.8053 23.4727 30.3071 27.3237 27.6152C29.9827 25.8603 32.1059 23.6111 33.5216 21.0498C34.9373 18.4884 35.6057 15.6868 35.4727 12.8717C36.5577 12.1992 37.3676 11.2669 37.7928 10.2007C37.8894 10.0059 37.9218 9.79329 37.8866 9.58467C37.8513 9.37606 37.7498 9.17898 37.5923 9.01365Z" fill="white" fill-opacity="0.79"/>
<path d="M2.86593 14.3272H2.90525H3.66888L3.21751 13.7112C2.471 12.6925 2.11732 11.5205 2.19052 10.3462C2.2634 9.17692 2.75731 8.04296 3.62276 7.0921C3.71977 7.0058 3.84196 6.93372 3.98337 6.88413C4.13035 6.83259 4.2914 6.80775 4.45443 6.81275L4.45505 6.81277C4.61682 6.81748 4.7734 6.85135 4.91345 6.91017C5.05282 6.9687 5.16964 7.04927 5.25867 7.14238C7.75581 9.82453 11.2813 11.7005 15.234 12.4682L15.2339 12.4685L15.2476 12.4706C15.394 12.4937 15.5307 12.54 15.6503 12.605C15.7698 12.6699 15.8678 12.7512 15.9416 12.841C16.0152 12.9307 16.0633 13.027 16.0875 13.1235C16.1116 13.2198 16.1126 13.318 16.0905 13.4143C16.0684 13.5109 16.0225 13.6075 15.9511 13.6977C15.8795 13.7882 15.7836 13.8705 15.6657 13.937C15.5479 14.0035 15.4124 14.0517 15.2666 14.0768C15.1227 14.1016 14.974 14.103 14.8294 14.0808C11.0589 13.3662 7.63714 11.7423 4.99374 9.42303L4.51766 9.00533L4.36302 9.61951C3.96859 11.186 4.6722 13.2654 7.14046 15.1275L7.14898 15.1339L7.15784 15.1399C7.32701 15.2535 7.43585 15.3988 7.48532 15.5469C7.53327 15.6905 7.52748 15.8415 7.46651 15.9845C7.39246 16.1308 7.25823 16.2675 7.06896 16.3647C6.87643 16.4637 6.64492 16.5121 6.40914 16.4976L6.40915 16.4974L6.39775 16.4971C6.23966 16.492 6.08667 16.4777 5.92337 16.4625C5.9092 16.4611 5.89496 16.4598 5.88063 16.4585C5.70584 16.4422 5.51758 16.4257 5.32561 16.4257H4.67394L4.98564 16.9979C5.41492 17.7861 6.05231 18.4754 6.84302 19.0172C7.63363 19.5589 8.55883 19.9405 9.5468 20.1365L9.54732 20.1366C9.76587 20.1796 9.95433 20.2749 10.0916 20.4007C10.228 20.5257 10.3051 20.6718 10.3284 20.8156L2.86593 14.3272ZM2.86593 14.3272C2.73886 14.3952 2.63601 14.4822 2.5613 14.5787C2.47641 14.6883 2.43004 14.8068 2.41837 14.9233C2.3989 15.8498 2.61992 16.7718 3.07034 17.6276C3.5231 18.4878 4.19819 19.263 5.0546 19.8966L5.42288 20.1691L5.0928 20.4868C4.97619 20.599 4.90597 20.727 4.87832 20.8544C4.85092 20.9805 4.86399 21.1112 4.91965 21.2362L2.86593 14.3272ZM8.29873 28.4489C10.3766 28.0337 12.3035 27.1984 13.9043 26.0127M8.29873 28.4489L14.1191 24.7187C14.2399 24.9282 14.2839 25.1624 14.2457 25.3924C14.2075 25.6224 14.0888 25.838 13.9043 26.0127M8.29873 28.4489C8.03541 28.381 7.77366 28.3079 7.5137 28.2298L7.40225 28.6005L7.4555 28.9839C7.73506 28.9451 8.01256 28.899 8.28762 28.8456C11.0754 29.5523 14.0316 29.6966 16.9083 29.2612C20.0917 28.7794 23.0633 27.605 25.5191 25.8583M8.29873 28.4489L31.1896 8.92546M13.9043 26.0127L13.6739 25.7016C13.6671 25.7066 13.6603 25.7116 13.6536 25.7166M13.9043 26.0127L13.6382 25.7315C13.6434 25.7265 13.6485 25.7216 13.6536 25.7166M13.6536 25.7166C11.8843 27.0215 9.69951 27.8906 7.349 28.217L7.2908 28.9712C10.3885 29.9025 13.727 30.1342 16.9662 29.644C20.203 29.154 23.2305 27.9598 25.738 26.1777M13.6536 25.7166C13.7731 25.5979 13.8416 25.4625 13.8638 25.329C13.8867 25.1909 13.8615 25.047 13.7837 24.9121L13.7834 24.9115C13.7057 24.7762 13.5757 24.6516 13.3989 24.5618C13.222 24.4719 13.0122 24.4243 12.7959 24.4291L12.7847 24.4294L12.7847 24.4292C11.9228 24.4236 11.0706 24.2654 10.2848 23.9636C9.49908 23.6619 8.79503 23.2224 8.22221 22.6709L7.66258 22.1322L8.42968 22.0098C8.89784 21.9351 9.34892 21.804 9.76849 21.6216L9.77674 21.618L9.77678 21.6181C9.98117 21.5348 10.1355 21.4057 10.2289 21.2608C10.321 21.1178 10.3522 20.9633 10.3284 20.8157L25.738 26.1777M25.738 26.1777C28.1791 24.5656 30.1146 22.477 31.3677 20.0895C32.6222 17.6994 33.1527 15.0857 32.9079 12.4793L32.9081 12.4793L32.9063 12.4657C32.891 12.3479 32.9107 12.2266 32.968 12.1105C33.0257 11.9936 33.1219 11.882 33.2557 11.791L33.898 11.3542L33.1625 11.1044C32.9974 11.0482 32.8581 10.9617 32.7537 10.8577C32.6497 10.7542 32.5843 10.6378 32.5549 10.5213C32.5256 10.4056 32.5306 10.2863 32.5707 10.1709C32.6111 10.0548 32.688 9.94043 32.8032 9.84161L33.5966 9.16071H32.5511H32.193H32.1653L32.1379 9.16466C31.9619 9.18999 31.7812 9.17962 31.6125 9.13513C31.4481 9.09176 31.3039 9.01839 31.1896 8.92546M25.738 26.1777L2.12084 27.0764C2.12035 27.0764 2.11987 27.0764 2.11938 27.0764C1.87551 27.0787 1.64543 27.1473 1.4642 27.2637C1.28306 27.38 1.16768 27.5324 1.11736 27.6876C1.06781 27.8403 1.07884 28.0018 1.15311 28.1531C1.22865 28.307 1.37054 28.4507 1.5723 28.5499L1.57722 28.5523L1.5772 28.5523C5.18771 30.3916 9.33074 31.3989 13.5761 31.4659C18.5395 31.4179 23.3208 29.941 27.1019 27.2979L27.1103 27.292L27.1104 27.2921C29.722 25.5685 31.8 23.3643 33.1828 20.8625C34.5652 18.3614 35.2155 15.6307 35.086 12.8899L35.0752 12.6625L35.2688 12.5426C36.2917 11.9087 37.0421 11.038 37.4332 10.0573L37.439 10.0427L37.446 10.0287C37.5074 9.90485 37.5261 9.77483 37.5049 9.64915C37.4836 9.52328 37.4212 9.39586 37.3134 9.28216C37.254 9.22146 37.1792 9.16687 37.0907 9.12297L36.7081 8.93298L36.9348 8.57082C37.2308 8.09797 37.435 7.59263 37.5423 7.0729C37.5691 6.93644 37.5487 6.79435 37.4775 6.66027C37.4052 6.52407 37.2804 6.397 37.1073 6.30332L37.1061 6.30265C36.932 6.20766 36.7224 6.1543 36.5038 6.1543C36.2852 6.1543 36.0757 6.20766 35.9016 6.30265L35.8997 6.30369C34.8665 6.86015 33.7161 7.24439 32.512 7.43722L32.3459 7.46383L32.2131 7.3605C30.9368 6.3675 29.3133 5.71988 27.5627 5.51494C25.8128 5.31007 24.0313 5.55881 22.4638 6.22363C20.8295 6.93309 19.5402 8.06482 18.7835 9.42857C18.0279 10.7901 17.8409 12.3132 18.2444 13.7652L18.2479 13.778L18.2477 13.778C18.2946 13.9723 18.439 14.1663 18.6806 14.2998C18.923 14.4338 19.2286 14.486 19.5267 14.4366C19.825 14.3871 20.0693 14.244 20.2171 14.0603C20.3601 13.8825 20.4042 13.6802 20.361 13.4918C20.0392 12.3643 20.1726 11.1812 20.7345 10.1284C21.2967 9.07536 22.2519 8.21842 23.4392 7.67622L23.4498 7.67139L23.4499 7.67155C24.7257 7.13473 26.1765 6.96808 27.5746 7.19441C28.9674 7.41989 30.2408 8.02475 31.1896 8.92546M25.738 26.1777C25.7361 26.179 25.7342 26.1802 25.7324 26.1814L25.5191 25.8583M25.738 26.1777C25.7398 26.1764 25.7417 26.1751 25.7435 26.1738L25.5191 25.8583M31.1896 8.92546C31.193 8.92875 31.1965 8.93205 31.2 8.93536L30.9327 9.21545C31.0951 9.35074 31.2944 9.45159 31.5138 9.50945C31.6774 9.55259 31.8485 9.57088 32.019 9.56387C32.0639 9.49873 32.114 9.43683 32.1687 9.37857C32.1767 9.37002 32.1848 9.36156 32.193 9.35317C32.2267 9.31877 32.2621 9.2857 32.299 9.25406L32.5511 9.54784V9.93496H32.2499C32.2329 9.97054 32.2179 10.0069 32.205 10.0438C32.1403 10.2301 32.1315 10.4266 32.1796 10.6164C32.2276 10.8061 32.331 10.9831 32.4806 11.1321C32.5338 11.185 32.5922 11.2338 32.6551 11.278C32.7073 11.2326 32.7625 11.1901 32.8203 11.1508L33.038 11.4709L32.9135 11.8375C32.8504 11.816 32.7886 11.7915 32.7285 11.764C32.687 11.8197 32.6509 11.8782 32.6208 11.9392C32.5308 12.1216 32.497 12.3196 32.5224 12.5155C32.76 15.0446 32.2459 17.5835 31.0249 19.9096C29.804 22.2358 27.9135 24.2783 25.5191 25.8583" stroke="white" stroke-opacity="0.79" stroke-width="0.774248"/>
<path d="M192.114 8.28113C187.552 8.28113 183.772 12.0643 183.772 16.7767C183.772 21.4891 187.487 25.2723 192.114 25.2723C196.74 25.2723 200.455 21.4227 200.455 16.7767C200.455 12.1307 196.675 8.28113 192.114 8.28113ZM192.114 22.2192C189.181 22.2192 186.77 19.7635 186.77 16.7767C186.77 13.79 189.181 11.3342 192.114 11.3342C195.046 11.3342 197.457 13.79 197.457 16.7767C197.457 19.7635 195.046 22.2192 192.114 22.2192Z" fill="white" fill-opacity="0.79"/>
<path d="M184.159 16.7767C184.159 12.2734 187.77 8.66825 192.114 8.66825C196.455 8.66825 200.068 12.3378 200.068 16.7767C200.068 21.2176 196.518 24.8852 192.114 24.8852C187.707 24.8852 184.159 21.282 184.159 16.7767ZM186.383 16.7767C186.383 19.9705 188.96 22.6063 192.114 22.6063C195.267 22.6063 197.844 19.9705 197.844 16.7767C197.844 13.5829 195.267 10.9471 192.114 10.9471C188.96 10.9471 186.383 13.5829 186.383 16.7767Z" stroke="white" stroke-opacity="0.79" stroke-width="0.774248"/>
<path d="M200.781 10.0065C201.825 10.0065 202.671 9.14479 202.671 8.08177C202.671 7.01874 201.825 6.15698 200.781 6.15698C199.737 6.15698 198.891 7.01874 198.891 8.08177C198.891 9.14479 199.737 10.0065 200.781 10.0065Z" fill="white" fill-opacity="0.79"/>
<path d="M202.284 8.08177C202.284 8.9377 201.604 9.61942 200.781 9.61942C199.958 9.61942 199.278 8.9377 199.278 8.08177C199.278 7.22583 199.958 6.54411 200.781 6.54411C201.604 6.54411 202.284 7.22583 202.284 8.08177Z" stroke="white" stroke-opacity="0.79" stroke-width="0.774248"/>
<path d="M205.669 3.10369C203.974 1.31165 201.563 0.382446 198.826 0.382446H185.401C179.732 0.382446 175.952 4.23201 175.952 10.0064V23.6126C175.952 26.4666 176.864 28.9223 178.689 30.7144C180.448 32.44 182.795 33.3029 185.466 33.3029H198.761C201.563 33.3029 203.909 32.3737 205.603 30.7144C207.363 28.9887 208.275 26.5329 208.275 23.679V10.0064C208.275 7.21874 207.363 4.82936 205.669 3.10369ZM205.408 23.679C205.408 25.7365 204.691 27.3958 203.518 28.5241C202.345 29.6524 200.716 30.2498 198.761 30.2498H185.466C183.511 30.2498 181.882 29.6524 180.709 28.5241C179.536 27.3294 178.95 25.6701 178.95 23.6126V10.0064C178.95 8.01521 179.536 6.35591 180.709 5.16122C181.817 4.0329 183.511 3.43555 185.466 3.43555H198.891C200.846 3.43555 202.475 4.0329 203.648 5.22759C204.756 6.42228 205.408 8.08158 205.408 10.0064V23.679Z" fill="white" fill-opacity="0.79"/>
<path d="M205.387 3.36966L205.387 3.3697L205.392 3.37491C207.006 5.01814 207.888 7.30517 207.888 10.0064V23.679C207.888 26.4502 207.004 28.7986 205.333 30.4378C203.719 32.0179 201.474 32.9157 198.761 32.9157H185.466C182.881 32.9157 180.637 32.0828 178.96 30.4382C177.222 28.7312 176.339 26.3816 176.339 23.6126V10.0064C176.339 7.20505 177.254 4.90164 178.827 3.30024C180.398 1.69948 182.657 0.76957 185.401 0.76957H198.826C201.475 0.76957 203.778 1.66714 205.387 3.36966ZM180.433 28.7953L180.433 28.7954L180.441 28.8031C181.699 30.0134 183.431 30.6369 185.466 30.6369H198.761C200.796 30.6369 202.528 30.0134 203.786 28.8031C205.044 27.5937 205.795 25.8295 205.795 23.679V10.0064C205.795 7.99271 205.112 6.23681 203.932 4.96436L203.932 4.96425L203.925 4.95637C202.664 3.67259 200.927 3.04843 198.891 3.04843H185.466C183.438 3.04843 181.633 3.66818 180.433 4.89C179.173 6.17291 178.563 7.93835 178.563 10.0064V23.6126C178.563 25.745 179.172 27.5113 180.433 28.7953Z" stroke="white" stroke-opacity="0.79" stroke-width="0.774248"/>
<path d="M114.071 2.62415C114.071 2.03262 113.592 1.55309 113 1.55309H106.466C103.409 1.55309 100.428 2.33913 98.1815 3.79864C95.9369 5.25712 94.5043 7.35449 94.5043 9.70047V12.8752H89.0411C88.4496 12.8752 87.97 13.3547 87.97 13.9463V19.6073C87.97 20.1988 88.4496 20.6784 89.0411 20.6784H94.5043V30.9294C94.5043 31.521 94.9838 32.0005 95.5753 32.0005H104.288C104.879 32.0005 105.359 31.521 105.359 30.9294V20.6784H110.822C111.265 20.6784 111.662 20.4055 111.822 19.9919L114 14.3309C114.126 14.0015 114.083 13.6309 113.883 13.3399C113.683 13.049 113.353 12.8752 113 12.8752H105.359V9.7314C105.374 9.70892 105.416 9.65839 105.509 9.59783C105.714 9.46486 106.056 9.35625 106.466 9.35625H113C113.592 9.35625 114.071 8.87673 114.071 8.2852V2.62415Z" stroke="white" stroke-opacity="0.79" stroke-width="2.1421" stroke-linecap="round" stroke-linejoin="round"/>
</svg>
