<svg width="187" height="202" viewBox="0 0 187 202" fill="none" xmlns="http://www.w3.org/2000/svg">
<path d="M149.233 124.897C144.374 124.776 141.438 124.403 141.186 124.283C141.145 124.262 141.107 124.234 141.075 124.201C141.064 124.189 141.052 124.177 141.041 124.164L141.034 124.156C140.994 124.109 140.958 124.058 140.925 124.005L140.917 123.993C140.894 123.956 140.87 123.915 140.845 123.871C140.829 123.843 140.813 123.813 140.797 123.782C140.781 123.75 140.766 123.717 140.75 123.684C140.722 123.625 140.694 123.562 140.665 123.496L140.637 123.428L140.626 123.404C137.114 126.003 133.407 128.33 129.537 130.366C126.157 132.156 122.649 133.804 118.897 134.555C115.145 135.307 111.093 135.109 107.702 133.342C106.231 132.614 104.941 131.57 103.925 130.286C102.908 129.002 102.191 127.509 101.824 125.916C101.158 122.589 100.628 119.036 99.3626 115.859C98.0645 112.853 97.371 109.623 97.3213 106.352C97.3264 104.69 97.4668 103.03 97.7411 101.391C97.8262 100.33 98.1641 99.304 98.7268 98.3988C99.4802 97.5047 100.516 96.8907 101.665 96.6568C105.136 95.7457 105.508 97.0063 107.387 93.8512C108.04 92.7135 108.917 91.7188 109.965 90.9267C113.502 88.3531 118.454 89.1811 122.566 90.6875C126.265 92.0426 131.761 94.6133 136.008 94.8568C135.995 94.5825 135.985 94.3146 135.977 94.0546C135.977 94.0474 135.977 94.0403 135.977 94.0331C135.977 94.026 135.977 94.0038 135.977 93.9894C135.979 93.8351 136.006 93.6822 136.058 93.5368V93.5325L136.068 93.5074C136.16 93.2652 136.315 93.0522 136.519 92.891C136.722 92.7299 136.966 92.6265 137.224 92.592C138.568 92.4077 139.911 92.2277 141.252 92.0519L146.497 73.4605C146.558 73.2438 146.568 73.0158 146.524 72.7949C146.48 72.5741 146.384 72.3666 146.245 72.1893C146.105 72.0121 145.926 71.87 145.721 71.7746C145.516 71.6793 145.291 71.6333 145.065 71.6405L125.086 72.2644L127.081 54.6736C127.112 54.4056 127.066 54.1345 126.948 53.8914C126.831 53.6483 126.647 53.4432 126.417 53.2996C126.188 53.156 125.922 53.0798 125.651 53.0797C125.38 53.0796 125.114 53.1556 124.884 53.2991L106.019 65.0609L89.686 50.7907C89.4778 50.6085 89.2211 50.49 88.9468 50.4494C88.6725 50.4088 88.3923 50.4478 88.1398 50.5618C87.8872 50.6758 87.6732 50.8599 87.5233 51.092C87.3734 51.3241 87.294 51.5943 87.2948 51.8701L87.3257 66.5428L69.2528 58.6689C69.032 58.5731 68.7907 58.5338 68.5508 58.5548C68.3108 58.5757 68.08 58.6562 67.8795 58.7888C67.6789 58.9214 67.5149 59.1019 67.4026 59.3139C67.2903 59.5258 67.2333 59.7624 67.2367 60.0019L67.5455 81.9805L48.098 79.2107C47.8284 79.1721 47.5533 79.2103 47.3047 79.3209C47.0561 79.4315 46.844 79.61 46.6933 79.8356C46.5425 80.0613 46.4591 80.3248 46.4529 80.5957C46.4466 80.8666 46.5177 81.1337 46.6579 81.366L55.1105 95.394C58.9987 94.4557 63.4442 92.0469 66.5865 90.6523C70.5877 88.8767 75.4739 87.7228 79.1749 90.0557C80.2743 90.7762 81.2158 91.7106 81.9427 92.8026C82.2963 93.3509 82.7137 93.8558 83.1862 94.3067C84.3455 95.331 85.1483 94.705 87.8413 95.2236C89.0033 95.381 90.0776 95.925 90.8892 96.7671C91.5115 97.6331 91.9173 98.6342 92.073 99.6873C93.3278 104.49 93.102 109.557 91.4249 114.231C90.3751 117.484 90.0842 121.065 89.6421 124.429C89.383 126.043 88.7672 127.58 87.8391 128.928C86.9109 130.276 85.6937 131.403 84.2749 132.227C81.0096 134.215 76.9802 134.685 73.1863 134.181C69.3924 133.676 65.7807 132.266 62.2864 130.704C60.6829 129.988 59.0419 129.215 57.4175 128.392L51.812 137.585C51.6781 137.804 51.606 138.056 51.6032 138.312C51.6003 138.569 51.6668 138.822 51.7958 139.044C51.9247 139.266 52.1113 139.45 52.3361 139.576C52.5608 139.702 52.8155 139.766 53.0735 139.76L75.2111 139.305L72.0314 158.25C71.9865 158.517 72.0188 158.792 72.1245 159.042C72.2302 159.291 72.4049 159.506 72.6285 159.661C72.8521 159.816 73.1152 159.905 73.3874 159.917C73.6596 159.929 73.9297 159.864 74.1663 159.73L96.1664 147.222L114.355 163.111C114.563 163.293 114.819 163.411 115.094 163.452C115.368 163.492 115.648 163.453 115.901 163.339C116.153 163.225 116.367 163.041 116.517 162.809C116.667 162.577 116.747 162.307 116.746 162.031L116.711 145.591L133.253 152.543C133.474 152.636 133.714 152.672 133.953 152.649C134.191 152.626 134.421 152.544 134.619 152.411C134.818 152.278 134.98 152.097 135.091 151.885C135.202 151.674 135.258 151.438 135.254 151.2L134.94 131.59L152 134.423C152.268 134.468 152.545 134.436 152.796 134.331C153.047 134.226 153.263 134.052 153.419 133.829C153.575 133.607 153.664 133.345 153.676 133.074C153.688 132.803 153.623 132.534 153.487 132.299L149.233 124.897Z" fill="#FF3268" stroke="#FF3268" stroke-width="1.55404" stroke-linecap="round" stroke-linejoin="round"/>
<path d="M53.4681 95.7012C57.6853 95.1719 62.9884 92.2474 66.5836 90.6522C70.5848 88.8766 75.471 87.7227 79.172 90.0556C80.2714 90.7761 81.2129 91.7105 81.9398 92.8025C84.0279 95.8258 84.316 94.5444 87.8384 95.2227C89.0004 95.3802 90.0747 95.9242 90.8863 96.7663C91.5083 97.6325 91.914 98.6334 92.0701 99.6865C93.3249 104.489 93.0991 109.557 91.422 114.23C90.3722 117.484 90.0813 121.064 89.6392 124.428C89.3801 126.042 88.7643 127.579 87.8361 128.927C86.908 130.276 85.6908 131.402 84.272 132.226C81.0067 134.214 76.9773 134.683 73.1834 134.18C69.3896 133.676 65.7807 132.266 62.2864 130.704C58.2809 128.96 54.4156 126.912 50.7247 124.58" stroke="#121212" stroke-width="1.55404" stroke-linecap="round" stroke-linejoin="round"/>
<path d="M10.1397 125.885C32.5459 128.757 49.6475 125.751 50.2545 125.412C51.7997 124.548 53.9699 102.68 53.3636 93.6097C38.5697 92.5454 23.8795 91.9931 12.338 91.5132L10.1397 125.885Z" stroke="#121212" stroke-width="1.55404" stroke-linecap="round" stroke-linejoin="round"/>
<path d="M135.972 94.8511C131.73 94.5968 126.252 92.0355 122.562 90.6831C118.451 89.179 113.498 88.3488 109.962 90.9224C108.913 91.7143 108.036 92.7091 107.384 93.8469C105.505 97.002 105.132 95.7414 101.661 96.6525C100.512 96.8864 99.4765 97.5004 98.7232 98.3945C98.1602 99.2996 97.8222 100.325 97.7375 101.386C96.8075 106.262 97.3725 111.303 99.359 115.855C100.624 119.032 101.154 122.588 101.821 125.912C102.187 127.505 102.905 128.997 103.921 130.281C104.938 131.566 106.228 132.609 107.698 133.337C111.089 135.105 115.142 135.306 118.894 134.551C122.646 133.796 126.154 132.15 129.534 130.361C133.403 128.326 137.11 125.998 140.622 123.399" stroke="#121212" stroke-width="1.55404" stroke-linecap="round" stroke-linejoin="round"/>
<path d="M163.646 122.469C161.086 112.341 159.217 102.065 159.017 91.7668C159.015 91.5306 158.962 91.2976 158.864 91.0827C158.765 90.8679 158.622 90.6759 158.445 90.5194C158.267 90.3628 158.058 90.245 157.832 90.1737C157.605 90.1023 157.367 90.0789 157.131 90.1051C150.722 90.8385 144.001 91.6551 137.224 92.5841C136.871 92.6304 136.547 92.8056 136.316 93.0759C136.085 93.3461 135.962 93.692 135.973 94.0467C136.273 103.738 139.655 123.557 141.184 124.283C141.616 124.487 149.842 125.421 162.092 124.598C162.344 124.581 162.589 124.509 162.81 124.388C163.03 124.266 163.221 124.098 163.369 123.895C163.518 123.692 163.619 123.459 163.667 123.212C163.715 122.966 163.707 122.712 163.646 122.469Z" stroke="#121212" stroke-width="1.55404" stroke-linecap="round" stroke-linejoin="round"/>
<path d="M185.556 121.183L180.932 87.4914L157.131 90.105C157.367 90.0789 157.605 90.1023 157.832 90.1736C158.058 90.245 158.267 90.3627 158.445 90.5193C158.622 90.6759 158.765 90.8678 158.864 91.0827C158.962 91.2976 159.015 91.5306 159.017 91.7668C159.217 102.065 161.086 112.341 163.646 122.469C163.707 122.712 163.715 122.966 163.667 123.212C163.619 123.459 163.518 123.692 163.37 123.895C163.221 124.098 163.03 124.266 162.81 124.388C162.589 124.509 162.344 124.581 162.092 124.598L185.556 121.183Z" fill="#121212" stroke="#121212" stroke-width="1.55404" stroke-linecap="round" stroke-linejoin="round"/>
<path d="M106.266 95.4069C109.18 96.6789 112.466 96.8255 115.483 95.818" stroke="#121212" stroke-width="1.55404" stroke-linecap="round" stroke-linejoin="round"/>
<path d="M97.3184 106.348C99.5369 106.593 106.995 105.493 109.176 105.021" stroke="#121212" stroke-width="1.55404" stroke-linecap="round" stroke-linejoin="round"/>
<path d="M99.359 115.855C103.609 115.76 107.826 115.088 111.893 113.859" stroke="#121212" stroke-width="1.55404" stroke-linecap="round" stroke-linejoin="round"/>
<path d="M101.88 126.184C105.145 126.282 109.057 125.274 112.169 124.285" stroke="#121212" stroke-width="1.55404" stroke-linecap="round" stroke-linejoin="round"/>
<path d="M144.16 119.31C144.499 119.678 144.913 119.969 145.375 120.165C145.836 120.361 146.334 120.457 146.835 120.447C147.222 120.45 147.603 120.362 147.948 120.19C148.478 119.87 148.861 119.355 149.012 118.757C150.842 112.516 140.219 114.897 144.16 119.31Z" fill="#121212" stroke="#121212" stroke-width="1.55404" stroke-miterlimit="10"/>
<path d="M83.1841 94.3039C80.3514 95.7606 77.0755 96.1179 73.9928 95.3067" stroke="#121212" stroke-width="1.55404" stroke-linecap="round" stroke-linejoin="round"/>
<path d="M92.8218 104.609C90.6249 105.001 83.1099 104.394 80.9023 104.07" stroke="#121212" stroke-width="1.55404" stroke-linecap="round" stroke-linejoin="round"/>
<path d="M91.422 114.23C87.1749 114.417 82.9221 114.027 78.781 113.07" stroke="#121212" stroke-width="1.55404" stroke-linecap="round" stroke-linejoin="round"/>
<path d="M89.6047 124.662C86.353 124.976 82.3762 124.272 79.2051 123.491" stroke="#121212" stroke-width="1.55404" stroke-linecap="round" stroke-linejoin="round"/>
<path d="M46.9517 120.647C46.6379 121.036 46.2444 121.354 45.7975 121.58C45.3505 121.806 44.8604 121.935 44.3595 121.958C43.9746 121.988 43.5881 121.925 43.2327 121.775C42.6815 121.491 42.2654 121.002 42.0749 120.415C39.8298 114.311 50.5879 115.983 46.9517 120.647Z" stroke="#121212" stroke-width="1.55404" stroke-linecap="round" stroke-linejoin="round"/>
<path d="M35.8991 4.0909C36.4603 6.84646 36.8575 9.63256 37.0886 12.4347C40.2161 12.4597 43.2874 13.2637 46.0221 14.7733C46.6481 15.1269 47.1575 15.6536 47.4887 16.2895C47.8198 16.9253 47.9584 17.6431 47.8876 18.3557C47.8169 19.0684 47.5399 19.7453 47.0902 20.3045C46.6405 20.8637 46.0374 21.2811 45.3539 21.5062C48.2341 21.3379 52.0582 20.4318 52.7487 19.2263C52.9905 18.8038 53.1462 18.3381 53.207 17.8558C53.2678 17.3734 53.2325 16.8839 53.1032 16.4151C52.9738 15.9464 52.7529 15.5075 52.453 15.1237C52.1531 14.7398 51.7802 14.4185 51.3555 14.1781C48.621 12.6677 45.5495 11.8637 42.4219 11.8395C42.1911 9.0368 41.7937 6.25018 41.2317 3.49425C41.0108 2.53734 40.4168 1.70691 39.5804 1.18561C38.7441 0.664303 37.7338 0.494815 36.7718 0.71442C35.9078 0.910677 32.7943 1.03029 31.5414 1.28743C32.4917 1.09877 33.4785 1.28606 34.2922 1.80953C35.1058 2.333 35.6823 3.1514 35.8991 4.0909Z" fill="#2260E5"/>
<path d="M27.1333 53.9989C27.1751 53.9946 27.2183 53.9903 27.2615 53.9874C28.2464 53.9221 29.217 54.2484 29.9602 54.8945C30.7034 55.5406 31.1584 56.4537 31.2253 57.4334C31.3189 58.8322 33.6238 59.6094 35.1517 59.6946C37.0464 59.7023 38.9286 59.3901 40.7183 58.7713L41.2835 58.5307C40.7029 58.7566 40.0794 58.8527 39.4572 58.8123C38.8351 58.7718 38.2295 58.5957 37.6833 58.2965C37.39 58.1634 37.1342 57.9605 36.9383 57.7058C36.7424 57.4511 36.6125 57.1524 36.5601 56.836C36.4934 55.857 36.0389 54.9443 35.2964 54.2982C34.554 53.6522 33.5842 53.3256 32.5999 53.39C32.5567 53.39 32.5135 53.3965 32.4717 53.4015C31.4111 53.5082 28.2631 53.9215 27.2665 53.9874C27.2233 53.9874 27.1801 53.9946 27.1384 53.9989" fill="#2260E5"/>
<path d="M55.6591 40.2587C52.9826 37.9792 49.882 36.245 46.5334 35.1546C45.1746 34.7291 43.7936 34.371 42.4126 34.0129C40.377 33.5394 38.3769 32.9258 36.4269 32.1764C34.0292 31.1815 32.1851 29.4596 31.6163 27.6854C31.4349 27.0798 31.3952 26.4409 31.5003 25.8176C31.6054 25.1944 31.8524 24.6033 32.2226 24.0897C33.0377 23.0841 34.0285 22.2329 35.1474 21.5771C36.1836 20.8724 37.3931 20.4617 38.6461 20.389C39.8991 20.3163 41.1484 20.5844 42.2599 21.1645C40.7514 20.3771 39.0922 19.917 37.3917 19.8147C35.6913 19.7123 33.9883 19.97 32.3954 20.5707C30.1634 21.3209 28.2326 22.7641 26.8871 24.6878C26.5169 25.2014 26.2698 25.7924 26.1647 26.4157C26.0596 27.0389 26.0993 27.6778 26.2808 28.2835C26.8496 30.0577 28.6937 31.7788 31.0914 32.7737C33.0412 33.5238 35.0413 34.1375 37.0771 34.6102C38.4581 34.9684 39.8392 35.3265 41.1979 35.7527C44.5465 36.8431 47.6471 38.5773 50.3236 40.8568C53.1772 43.2498 56.197 47.5109 56.1142 52.2891C56.0289 54.1289 55.5438 55.9284 54.6925 57.5639C53.8412 59.1994 52.6438 60.632 51.1826 61.7632C49.2831 63.2617 47.1402 64.4264 44.8463 65.207C45.225 67.8884 45.4562 70.5885 45.539 73.295C45.5777 74.2367 45.2539 75.1576 44.6336 75.8701C44.0134 76.5825 43.1433 77.0328 42.2009 77.1292C43.2586 77.0225 46.3425 76.5863 47.306 76.5469C47.3844 76.5469 47.4586 76.539 47.5342 76.5311C48.4766 76.4349 49.3466 75.9847 49.9669 75.2724C50.5872 74.5601 50.911 73.6393 50.8723 72.6977C50.7895 69.9911 50.5583 67.2911 50.1796 64.6096C52.4734 63.8285 54.6163 62.6636 56.516 61.1651C57.977 60.034 59.1744 58.6015 60.0257 56.9662C60.877 55.3308 61.3621 53.5314 61.4475 51.6917C61.5325 46.9128 58.5126 42.6525 55.6591 40.2587Z" fill="#2260E5"/>
<path d="M41.2 35.7527C39.8413 35.3265 38.4639 34.9684 37.0792 34.6103C35.0435 34.1384 33.0434 33.5257 31.0935 32.7766C28.6958 31.7817 26.8518 30.0606 26.283 28.2864C26.1015 27.6808 26.0618 27.0418 26.1669 26.4186C26.272 25.7953 26.5191 25.2043 26.8892 24.6907C28.2347 22.767 30.1656 21.3238 32.3975 20.5736C34.0043 19.967 35.7232 19.7101 37.4383 19.8202C39.1533 19.9303 40.8247 20.4048 42.3398 21.2118C42.7645 21.4523 43.2327 21.6073 43.7176 21.6678C44.2025 21.7283 44.6946 21.6933 45.1659 21.5646C45.6372 21.4359 46.0784 21.2162 46.4643 20.9179C46.8502 20.6196 47.1732 20.2487 47.415 19.8262C47.6568 19.4037 47.8126 18.938 47.8734 18.4557C47.9343 17.9733 47.899 17.4837 47.7697 17.0149C47.6403 16.5461 47.4194 16.1073 47.1196 15.7234C46.8197 15.3395 46.4468 15.0181 46.0221 14.7776C43.2878 13.2665 40.2164 12.461 37.0886 12.4347C36.8578 9.63254 36.4606 6.84641 35.8991 4.09091C35.6781 3.13406 35.0841 2.3037 34.2477 1.78252C33.4113 1.26133 32.4011 1.09201 31.4392 1.3118C30.4773 1.53159 29.6425 2.12249 29.1186 2.9545C28.5947 3.78652 28.4245 4.7915 28.6454 5.74835C29.1599 8.36288 29.522 11.0048 29.7298 13.6609C25.9848 14.9817 22.772 17.4761 20.5745 20.7692C19.6261 22.1912 19.0099 23.8064 18.771 25.4962C18.5321 27.1861 18.6767 28.9077 19.1942 30.5347C20.4276 34.3804 23.8024 37.769 28.2307 39.6091C30.5022 40.4958 32.8343 41.2206 35.2093 41.778C36.4679 42.1024 37.7294 42.4276 38.9686 42.8144C41.3745 43.6175 43.602 44.8748 45.5289 46.5175C47.3808 48.0711 48.705 50.4448 48.6747 52.1631C48.5945 52.9282 48.3558 53.6686 47.9736 54.3373C47.5914 55.0061 47.074 55.5889 46.4541 56.0488C44.7324 57.3074 42.787 58.2309 40.7205 58.7706C38.9308 59.3895 37.0485 59.7016 35.1538 59.6939C33.6259 59.6087 31.3211 58.8344 31.2275 57.4327C31.1604 56.4523 30.7046 55.5385 29.9603 54.8924C29.216 54.2463 28.2442 53.9208 27.2586 53.9874C27.2154 53.9874 27.1722 53.9946 27.1304 53.9989C26.1706 54.0964 25.2864 54.5609 24.664 55.2943C24.0417 56.0277 23.73 56.9728 23.7945 57.9305C24.1934 63.8268 29.7442 66.8122 34.7326 67.0886C35.655 67.137 36.5797 67.1131 37.4983 67.017C37.5278 67.017 37.5559 67.0091 37.5847 67.0056C37.7849 68.4882 37.975 70.5812 38.0995 73.5952C38.1194 74.0809 38.2354 74.558 38.4406 74.9992C38.6459 75.4404 38.9366 75.837 39.2959 76.1664C39.6553 76.4959 40.0764 76.7517 40.5352 76.9192C40.994 77.0867 41.4814 77.1627 41.9697 77.1429C42.0482 77.1429 42.1224 77.135 42.198 77.1271C43.1405 77.0307 44.0105 76.5804 44.6307 75.868C45.251 75.1555 45.5748 74.2346 45.5361 73.2929C45.4533 70.5866 45.2221 67.8868 44.8434 65.2056C47.1372 64.4245 49.2801 63.2595 51.1797 61.7611C52.6409 60.6299 53.8383 59.1973 54.6896 57.5618C55.5409 55.9263 56.026 54.1268 56.1113 52.287C56.1941 47.5088 53.1743 43.2477 50.3207 40.8547C47.6455 38.5765 44.5467 36.8431 41.2 35.7527Z" stroke="#121212" stroke-width="1.55404" stroke-linecap="round" stroke-linejoin="round"/>
<path d="M44.5396 182.893C43.9549 181.494 43.3678 180.1 42.7784 178.71C46.4383 176.872 50.0904 175.016 53.6834 173.111C54.537 172.659 55.1752 171.888 55.4574 170.967C55.7396 170.047 55.6428 169.053 55.1882 168.204C54.2414 166.436 52.2361 166.276 50.2545 166.707C48.6275 167.125 47.0563 167.735 45.5743 168.523C45.997 168.299 46.4599 168.16 46.9366 168.114C47.4133 168.068 47.8944 168.116 48.3525 168.255C48.8107 168.394 49.2368 168.622 49.6065 168.924C49.9763 169.227 50.2825 169.599 50.5076 170.02C50.7328 170.44 50.8724 170.901 50.9187 171.375C50.9649 171.849 50.9168 172.328 50.7771 172.784C50.6374 173.239 50.4088 173.663 50.1044 174.031C49.8001 174.399 49.4258 174.703 49.0031 174.927C45.4101 176.833 41.7581 178.689 38.0981 180.527C38.7533 182.071 39.4043 183.614 40.0523 185.169L44.5396 182.893Z" fill="#2260E5"/>
<path d="M39.6988 171.57C39.2142 170.462 38.7224 169.342 38.2162 168.204C38.5604 167.515 40.4735 157.349 41.1777 152.886C41.8718 148.482 42.5912 143.928 43.3105 140.208C43.4084 139.739 43.4108 139.256 43.3175 138.787C43.2242 138.317 43.0371 137.871 42.7673 137.475C42.4975 137.078 42.1505 136.74 41.7469 136.48C41.3432 136.219 40.8911 136.042 40.4174 135.959C36.4103 135.367 32.0224 137.702 31.4709 140.638C31.6556 139.694 32.2101 138.861 33.0122 138.323C33.8144 137.785 34.7986 137.586 35.7483 137.769C36.6979 137.953 37.5353 138.505 38.0762 139.303C38.6171 140.101 38.8171 141.08 38.6324 142.024C37.9123 145.742 37.1923 150.296 36.4996 154.702C35.7954 159.165 35.066 163.782 34.3244 167.622C34.1733 168.453 33.9088 169.26 33.5381 170.02C34.1141 171.314 34.6748 172.589 35.2201 173.843L39.6988 171.57Z" fill="#2260E5"/>
<path d="M7.41579 151.59C13.6283 156.523 20.6076 160.721 27.4415 164.751C28.0499 161.437 28.1651 160.578 28.1651 160.578C22.5783 157.326 17.2096 153.717 12.0932 149.774C10.9929 148.898 7.13137 149.789 4.56155 150.844C5.06332 150.763 5.57659 150.787 6.06823 150.916C6.55986 151.044 7.01893 151.274 7.41579 151.59Z" fill="#2260E5"/>
<path d="M59.0123 180.051C58.0662 178.283 56.0602 178.136 54.0793 178.554C52.4508 178.968 50.8791 179.578 49.3991 180.371C49.8226 180.135 50.2891 179.986 50.7714 179.932C51.2536 179.878 51.7419 179.92 52.2075 180.056C52.6731 180.192 53.1068 180.419 53.483 180.724C53.8593 181.029 54.1706 181.406 54.3987 181.832C54.6269 182.258 54.7672 182.725 54.8116 183.206C54.8559 183.686 54.8034 184.171 54.657 184.631C54.5107 185.092 54.2734 185.518 53.9592 185.886C53.645 186.254 53.2602 186.556 52.8272 186.774C49.5345 188.519 46.1841 190.212 42.8338 191.904C43.4055 193.3 43.9858 194.717 44.5777 196.18C44.9386 197.067 44.9321 198.061 44.5597 198.944C44.1873 199.826 43.4792 200.527 42.5897 200.893C43.4653 200.535 46.3209 199.46 47.2411 199.087L47.2678 199.077C48.1566 198.711 48.8642 198.011 49.2365 197.129C49.6089 196.246 49.6158 195.254 49.2558 194.366C48.6618 192.904 48.0836 191.487 47.5119 190.09C50.8622 188.4 54.2126 186.705 57.5053 184.959C57.9284 184.736 58.3031 184.431 58.6079 184.064C58.9127 183.696 59.1416 183.272 59.2816 182.816C59.4215 182.36 59.4698 181.881 59.4236 181.407C59.3774 180.932 59.2376 180.472 59.0123 180.051Z" fill="#2260E5"/>
<path d="M34.3244 167.619C35.066 163.78 35.7954 159.162 36.4996 154.699C37.1945 150.296 37.9131 145.742 38.6324 142.021C38.7229 141.554 38.7198 141.072 38.6234 140.606C38.527 140.139 38.3391 139.696 38.0704 139.301C37.8018 138.906 37.4576 138.568 37.0577 138.306C36.6577 138.044 36.2097 137.863 35.7393 137.773C35.2688 137.683 34.7852 137.686 34.316 137.782C33.8467 137.877 33.4011 138.064 33.0044 138.332C32.6078 138.599 32.268 138.941 32.0044 139.339C31.7407 139.737 31.5585 140.183 31.468 140.651C30.7263 144.49 29.9969 149.108 29.2928 153.571C28.6886 157.399 28.0687 161.339 27.4415 164.745C20.6076 160.715 13.6283 156.517 7.41581 151.584C7.0415 151.287 6.61201 151.066 6.15186 150.934C5.6917 150.802 5.20989 150.761 4.73393 150.814C4.25798 150.867 3.7972 151.013 3.3779 151.244C2.95861 151.474 2.58901 151.784 2.29021 152.156C1.99141 152.529 1.76926 152.956 1.63644 153.414C1.50363 153.871 1.46275 154.351 1.51614 154.824C1.56953 155.298 1.71614 155.756 1.94761 156.173C2.17907 156.59 2.49086 156.958 2.86516 157.255C9.94458 162.877 17.7368 167.465 25.2735 171.902C25.735 172.181 26.2194 172.42 26.7215 172.618C27.3935 174.127 28.0452 175.607 28.6764 177.059C25.779 178.469 22.883 179.893 19.9769 181.244C19.1158 181.647 18.4471 182.368 18.1132 183.255C17.7794 184.141 17.8069 185.122 18.1899 185.988C18.5729 186.855 19.281 187.538 20.1633 187.893C21.0455 188.247 22.0321 188.244 22.9125 187.885C22.965 187.864 23.0155 187.841 23.068 187.818C25.8999 186.499 28.7218 185.111 31.5458 183.735C32.2046 185.291 32.8598 186.847 33.5129 188.416C30.2806 189.998 27.0448 191.58 23.8003 193.089C22.9139 193.476 22.2185 194.198 21.867 195.095C21.5155 195.993 21.5367 196.992 21.926 197.874C22.3153 198.755 23.0408 199.447 23.9428 199.797C24.8448 200.147 25.8495 200.125 26.7359 199.738C26.7885 199.717 26.8389 199.694 26.8907 199.671C30.0293 198.21 33.155 196.677 36.2858 195.15C36.7898 196.376 37.2938 197.623 37.8144 198.902C37.9937 199.344 38.2588 199.746 38.5946 200.086C38.9303 200.426 39.3301 200.697 39.771 200.883C40.212 201.069 40.6856 201.167 41.1646 201.171C41.6437 201.176 42.1189 201.086 42.5631 200.907L42.5897 200.896C43.4792 200.531 44.1873 199.83 44.5597 198.947C44.9321 198.064 44.9386 197.071 44.5777 196.183C43.9837 194.721 43.4055 193.304 42.8338 191.907C46.1841 190.218 49.5345 188.522 52.8272 186.777C53.6809 186.325 54.3191 185.554 54.6012 184.634C54.8834 183.713 54.7864 182.719 54.3317 181.87C53.8771 181.021 53.1019 180.386 52.1767 180.105C51.2515 179.824 50.2521 179.921 49.3984 180.373C46.3195 182.005 43.1837 183.588 40.053 185.172C39.405 183.618 38.7569 182.074 38.0988 180.53C41.7588 178.692 45.4108 176.836 49.0038 174.931C49.8575 174.479 50.4957 173.708 50.7778 172.787C51.06 171.867 50.963 170.873 50.5083 170.024C50.0536 169.174 49.2784 168.54 48.3533 168.259C47.4281 167.978 46.4287 168.075 45.575 168.527C42.1634 170.335 38.6943 172.095 35.2201 173.843C34.6734 172.591 34.1127 171.317 33.5381 170.021C33.9091 169.26 34.1737 168.452 34.3244 167.619Z" stroke="#121212" stroke-width="1.55404" stroke-linecap="round" stroke-linejoin="round"/>
<path d="M34.3244 167.619C35.066 163.78 35.7954 159.162 36.4996 154.699C37.1945 150.296 37.9131 145.742 38.6324 142.021C38.7229 141.554 38.7198 141.072 38.6234 140.606C38.527 140.139 38.3391 139.696 38.0704 139.301C37.8018 138.906 37.4576 138.568 37.0577 138.306C36.6577 138.044 36.2097 137.863 35.7393 137.773C35.2688 137.683 34.7852 137.686 34.316 137.782C33.8467 137.877 33.4011 138.064 33.0044 138.332C32.6078 138.599 32.268 138.941 32.0044 139.339C31.7407 139.737 31.5585 140.183 31.468 140.651C30.7263 144.49 29.9969 149.108 29.2928 153.571C28.6886 157.399 28.0687 161.339 27.4415 164.745C20.6076 160.715 13.6283 156.517 7.41581 151.584C7.0415 151.287 6.61201 151.066 6.15186 150.934C5.6917 150.802 5.20989 150.761 4.73393 150.814C4.25798 150.867 3.7972 151.013 3.3779 151.244C2.95861 151.474 2.58901 151.784 2.29021 152.156C1.99141 152.529 1.76926 152.956 1.63644 153.414C1.50363 153.871 1.46275 154.351 1.51614 154.824C1.56953 155.298 1.71614 155.756 1.94761 156.173C2.17907 156.59 2.49086 156.958 2.86516 157.255C9.94458 162.877 17.7368 167.465 25.2735 171.902C25.735 172.181 26.2194 172.42 26.7215 172.618C27.3935 174.127 28.0452 175.607 28.6764 177.059C25.779 178.469 22.883 179.893 19.9769 181.244C19.1158 181.647 18.4471 182.368 18.1132 183.255C17.7794 184.141 17.8069 185.122 18.1899 185.988C18.5729 186.855 19.281 187.538 20.1633 187.893C21.0455 188.247 22.0321 188.244 22.9125 187.885C22.965 187.864 23.0155 187.841 23.068 187.818C25.8999 186.499 28.7218 185.111 31.5458 183.735C32.2046 185.291 32.8598 186.847 33.5129 188.416C30.2806 189.998 27.0448 191.58 23.8003 193.089C22.9139 193.476 22.2185 194.198 21.867 195.095C21.5155 195.993 21.5367 196.992 21.926 197.874C22.3153 198.755 23.0408 199.447 23.9428 199.797C24.8448 200.147 25.8495 200.125 26.7359 199.738C26.7885 199.717 26.8389 199.694 26.8907 199.671C30.0293 198.21 33.155 196.677 36.2858 195.15C36.7898 196.376 37.2938 197.623 37.8144 198.902C37.9937 199.344 38.2588 199.746 38.5946 200.086C38.9303 200.426 39.3301 200.697 39.771 200.883C40.212 201.069 40.6856 201.167 41.1646 201.171C41.6437 201.176 42.1189 201.086 42.5631 200.907L42.5897 200.896C43.4792 200.531 44.1873 199.83 44.5597 198.947C44.9321 198.064 44.9386 197.071 44.5777 196.183C43.9837 194.721 43.4055 193.304 42.8338 191.907C46.1841 190.218 49.5345 188.522 52.8272 186.777C53.6809 186.325 54.3191 185.554 54.6012 184.634C54.8834 183.713 54.7864 182.719 54.3317 181.87C53.8771 181.021 53.1019 180.386 52.1767 180.105C51.2515 179.824 50.2521 179.921 49.3984 180.373C46.3195 182.005 43.1837 183.588 40.053 185.172C39.405 183.618 38.7569 182.074 38.0988 180.53C41.7588 178.692 45.4108 176.836 49.0038 174.931C49.8575 174.479 50.4957 173.708 50.7778 172.787C51.06 171.867 50.963 170.873 50.5083 170.024C50.0536 169.174 49.2784 168.54 48.3533 168.259C47.4281 167.978 46.4287 168.075 45.575 168.527C42.1634 170.335 38.6943 172.095 35.2201 173.843C34.6734 172.591 34.1127 171.317 33.5381 170.021C33.9091 169.26 34.1737 168.452 34.3244 167.619Z" stroke="#121212" stroke-width="1.55404" stroke-linecap="round" stroke-linejoin="round"/>
<path d="M149.643 38.3635C151.642 38.5784 153.391 38.756 152.023 38.6156C152.944 34.4613 153.973 30.3349 155.119 26.3281C155.387 26.3281 155.642 26.3231 155.873 26.3223C157.01 26.5329 154.14 26.0122 151.553 25.6906C151.269 25.6662 150.699 25.6741 150.09 25.6806C148.938 29.7239 147.896 33.8875 146.968 38.0827C147.748 38.1601 148.63 38.2532 149.643 38.3635Z" fill="#2260E5"/>
<path d="M151.556 59.7081C150.459 59.5004 149.334 59.2633 148.153 58.9639C148.856 54.7537 149.634 50.3594 150.508 45.8971H150.697C151.066 45.8971 151.434 45.8892 151.751 45.8892L151.671 45.8656C150.275 45.6113 148.841 45.4358 147.434 45.2589C147.098 45.2296 146.383 45.2439 145.668 45.2489H145.48C144.604 49.7112 143.824 54.1055 143.124 58.3157C150.447 60.1716 151.556 59.7081 151.556 59.7081Z" fill="#2260E5"/>
<path d="M175.299 27.7871C173.174 24.8247 170.143 22.6262 166.658 21.5205C166.529 21.4753 166.4 21.4488 166.27 21.4044C166.896 18.3878 167.338 15.3365 167.595 12.267C167.643 11.378 167.335 10.5063 166.738 9.84261C166.142 9.17894 165.305 8.77739 164.412 8.72582C163.491 8.67424 160.505 8.14421 159.399 8.08118C160.29 8.13656 161.122 8.53957 161.716 9.2025C162.309 9.86543 162.615 10.7346 162.568 11.621C162.311 14.6906 161.868 17.7422 161.243 20.7591C161.373 20.8021 161.502 20.8307 161.631 20.8744C165.116 21.9804 168.147 24.1792 170.271 27.1417C172.681 30.7109 173.065 35.2799 171.247 38.7832C169.725 41.5221 167.194 43.5669 164.187 44.4875C165.471 45.6865 166.489 47.1381 167.178 48.7502C167.866 50.3622 168.21 52.0992 168.187 53.8506C168.064 59.2813 165.528 62.2309 163.424 63.7529C160.459 65.8924 156.463 66.5736 152.234 66.4619C151.827 69.7395 151.062 73.7176 150.541 75.9166C150.343 76.7507 149.832 77.4781 149.113 77.9499C148.394 78.4218 147.521 78.6025 146.672 78.455C147.738 78.6441 150.648 78.8611 151.509 79.0631C151.567 79.0767 151.623 79.0889 151.681 79.0989C152.533 79.2523 153.41 79.0749 154.134 78.6032C154.857 78.1315 155.371 77.4016 155.57 76.5641C156.092 74.3637 156.857 70.3855 157.264 67.1093C161.492 67.2211 165.488 66.5363 168.453 64.4004C170.558 62.8812 173.093 59.9295 173.216 54.4981C173.239 52.7467 172.895 51.0096 172.207 49.3976C171.518 47.7856 170.499 46.3339 169.216 45.135C172.223 44.2147 174.754 42.1701 176.276 39.4314C178.089 35.9282 177.706 31.3562 175.299 27.7871Z" fill="#2260E5"/>
<path d="M161.626 20.8723C161.497 20.8272 161.368 20.8007 161.238 20.757C161.863 17.7401 162.306 14.6885 162.563 11.6188C162.613 10.7294 162.305 9.8567 161.708 9.19266C161.111 8.52862 160.274 8.12766 159.38 8.07799C158.486 8.02831 157.608 8.33399 156.941 8.92778C156.273 9.52156 155.87 10.3548 155.82 11.2442C155.582 13.9531 155.189 16.6463 154.643 19.3108C153.886 19.2055 153.131 19.111 152.386 19.0179C151.508 18.9481 150.625 18.9285 149.744 18.9591C149.032 18.9656 148.317 18.9813 147.949 18.9491C147.94 18.9491 147.931 18.9491 147.921 18.9491C147.748 18.9318 147.574 18.9285 147.401 18.9391C147.35 18.9391 147.299 18.9391 147.249 18.9391C147.105 18.9554 146.962 18.9813 146.821 19.0164C146.745 19.0336 146.666 19.0422 146.591 19.0637C146.49 19.0945 146.395 19.1404 146.297 19.1797C146.19 19.2181 146.084 19.2621 145.982 19.3115C145.91 19.3481 145.849 19.3968 145.781 19.4383C145.662 19.5073 145.547 19.5834 145.437 19.6661C145.381 19.7119 145.333 19.7664 145.279 19.8158C145.17 19.9095 145.068 20.01 144.973 20.1166C144.922 20.1761 144.883 20.2434 144.837 20.3072C144.751 20.4173 144.672 20.5329 144.601 20.6531C144.559 20.7247 144.529 20.8085 144.495 20.8859C144.434 21.0091 144.381 21.1359 144.336 21.2655C144.331 21.2834 144.32 21.2985 144.315 21.3164C140.476 34.0079 137.939 48.0947 135.962 60.2024C135.955 60.2433 135.962 60.2827 135.954 60.3235C135.941 60.4345 135.937 60.5434 135.934 60.6537C135.931 60.764 135.928 60.8793 135.934 60.9903C135.94 61.1014 135.959 61.1945 135.977 61.2955C135.995 61.4093 136.019 61.5222 136.049 61.6335C136.075 61.7281 136.11 61.8198 136.144 61.9114C136.184 62.0204 136.229 62.1273 136.279 62.2316C136.324 62.3204 136.376 62.4035 136.427 62.488C136.485 62.5852 136.548 62.6794 136.616 62.7703C136.678 62.8512 136.746 62.9257 136.816 63.0016C136.886 63.0775 136.968 63.1642 137.052 63.2394C137.137 63.3146 137.211 63.369 137.294 63.4299C137.387 63.4992 137.483 63.5637 137.582 63.6233C137.669 63.6742 137.761 63.7193 137.854 63.7666C137.963 63.819 138.075 63.8651 138.189 63.9048C138.235 63.9206 138.274 63.9456 138.32 63.9593C140.685 64.6742 143.086 65.2619 145.515 65.7198C145.17 68.4524 144.514 72.0445 143.962 74.3745C143.86 74.8037 143.844 75.2487 143.916 75.684C143.987 76.1193 144.143 76.5364 144.377 76.9115C144.61 77.2866 144.915 77.6123 145.275 77.87C145.635 78.1277 146.042 78.3124 146.473 78.4135C146.531 78.4278 146.588 78.4393 146.646 78.45C147.497 78.6032 148.375 78.4257 149.099 77.9541C149.822 77.4824 150.336 76.7526 150.534 75.9152C151.056 73.7148 151.821 69.7367 152.228 66.4605C156.457 66.5722 160.452 65.8874 163.417 63.7515C165.523 62.2323 168.057 59.2799 168.18 53.8492C168.204 52.0978 167.86 50.3608 167.171 48.7488C166.483 47.1368 165.464 45.6851 164.181 44.4861C167.187 43.5656 169.718 41.5207 171.241 38.7818C173.059 35.2785 172.675 30.7095 170.265 27.1403C168.141 24.1777 165.11 21.9787 161.626 20.8723ZM151.551 25.6892C154.209 25.9232 156.835 26.4328 159.386 27.2098C161.054 27.7921 163.323 28.9038 164.662 30.885C165.16 31.5724 165.475 32.3746 165.577 33.2162C165.678 34.0578 165.564 34.9114 165.243 35.6968C164.83 36.3501 164.29 36.9152 163.656 37.3594C163.021 37.8035 162.304 38.1178 161.546 38.284C159.438 38.7555 157.277 38.9517 155.117 38.8677C154.376 38.872 151.639 38.5777 149.64 38.3628C148.627 38.2532 147.746 38.1601 146.964 38.0813C147.89 33.8861 148.93 29.7232 150.085 25.6791C150.697 25.6727 151.267 25.6655 151.551 25.6892ZM159.452 58.3136C156.736 60.2719 150.74 60.2476 143.124 58.3136C143.826 54.1034 144.604 49.7091 145.48 45.2461H145.668C146.383 45.2411 147.098 45.2268 147.434 45.2561C150.09 45.4897 152.715 45.9981 155.265 46.7732C156.736 47.2882 161.529 49.3102 161.428 53.6987C161.364 56.6025 160.269 57.7227 159.452 58.3136Z" stroke="#121212" stroke-width="1.55404" stroke-linecap="round" stroke-linejoin="round"/>
<path d="M174.548 137.217C175.311 137.624 175.911 138.278 176.248 139.072C176.585 139.865 176.638 140.75 176.4 141.578C176.161 142.406 175.644 143.127 174.936 143.622C174.227 144.118 173.37 144.356 172.506 144.299C176.332 145.066 180.613 143.714 181.479 142.105C182.467 140.271 181.971 137.461 179.931 137.003C176.014 136.051 172.002 135.536 167.97 135.467C170.266 135.557 172.513 136.155 174.548 137.217Z" fill="#2260E5"/>
<path d="M168.441 181.662C167.12 181.525 165.825 181.198 164.599 180.69C162.785 179.854 161.176 178.636 159.882 177.121C164.116 176.803 168.35 176.463 172.555 176.053C173.554 175.956 174.474 175.468 175.112 174.696C175.75 173.924 176.054 172.932 175.956 171.937C175.858 170.942 175.368 170.027 174.591 169.393C173.815 168.758 172.818 168.456 171.818 168.553C170.676 168.664 167.808 168.706 166.763 168.748C167.744 168.731 168.694 169.092 169.412 169.757C170.13 170.422 170.561 171.338 170.614 172.313C170.667 173.288 170.338 174.245 169.695 174.982C169.053 175.72 168.148 176.182 167.171 176.269C162.971 176.679 158.736 177.018 154.502 177.336C155.796 178.852 157.405 180.07 159.219 180.906C160.989 181.617 162.878 181.993 164.787 182.014C165.98 182.039 167.172 181.929 168.339 181.685L168.441 181.662Z" fill="#2260E5"/>
<path d="M169.178 143.195C166.668 142.609 163.567 143.139 160.521 144.725C156.45 146.901 153.184 150.314 151.2 154.466L156.691 154.049C158.682 149.987 161.906 146.651 165.907 144.51C166.957 143.963 168.063 143.531 169.206 143.221L169.178 143.195Z" fill="#2260E5"/>
<path d="M155.657 169.689C154.843 167.181 154.493 164.548 154.623 161.916C160.762 161.514 166.9 161.049 172.978 160.457C173.473 160.409 173.954 160.264 174.393 160.031C174.831 159.798 175.22 159.482 175.536 159.1C175.852 158.717 176.089 158.277 176.234 157.804C176.378 157.33 176.428 156.833 176.38 156.341C176.331 155.848 176.186 155.37 175.952 154.933C175.718 154.497 175.4 154.11 175.015 153.796C174.631 153.482 174.189 153.246 173.713 153.102C173.237 152.958 172.737 152.909 172.242 152.957C171.103 153.068 168.234 153.109 167.188 153.151C168.166 153.139 169.111 153.504 169.825 154.168C170.539 154.833 170.967 155.747 171.019 156.718C171.072 157.689 170.745 158.643 170.106 159.38C169.468 160.117 168.568 160.58 167.594 160.672C161.516 161.264 155.379 161.729 149.24 162.131C149.103 164.828 149.472 167.527 150.326 170.09L155.657 169.689Z" fill="#2260E5"/>
<path d="M176.877 179.388C177.56 179.356 178.24 179.508 178.843 179.829C179.446 180.15 179.951 180.627 180.304 181.21C180.657 181.793 180.845 182.46 180.848 183.14C180.851 183.821 180.669 184.49 180.321 185.075C178.737 187.739 167.614 189.545 164.706 189.547C169.754 189.584 184.12 187.526 185.705 184.862C186.053 184.276 186.235 183.607 186.232 182.927C186.229 182.246 186.041 181.579 185.688 180.996C185.335 180.414 184.83 179.936 184.227 179.616C183.623 179.295 182.944 179.142 182.261 179.174C181.707 179.2 177.742 179.363 176.877 179.389" fill="#2260E5"/>
<path d="M180.307 181.213C179.812 180.396 179.025 179.795 178.103 179.531C177.182 179.267 176.194 179.359 175.338 179.789C173.754 180.376 167.825 182.197 164.782 182.009C162.873 181.988 160.984 181.612 159.214 180.901C157.4 180.065 155.791 178.847 154.497 177.331C158.731 177.013 162.966 176.674 167.169 176.264C168.169 176.167 169.089 175.679 169.727 174.907C170.365 174.135 170.669 173.142 170.571 172.148C170.474 171.153 169.983 170.238 169.207 169.603C168.431 168.969 167.433 168.667 166.434 168.764C161.094 169.283 155.713 169.714 150.328 170.085C149.474 167.522 149.105 164.823 149.242 162.126C155.382 161.725 161.519 161.26 167.596 160.668C168.094 160.623 168.578 160.481 169.02 160.249C169.462 160.017 169.854 159.701 170.172 159.318C170.491 158.935 170.73 158.494 170.876 158.018C171.023 157.543 171.073 157.044 171.025 156.549C170.976 156.054 170.83 155.574 170.594 155.136C170.358 154.698 170.037 154.31 169.65 153.996C169.263 153.682 168.817 153.447 168.339 153.304C167.86 153.162 167.357 153.116 166.86 153.167C161.676 153.673 156.439 154.098 151.199 154.464C153.184 150.312 156.449 146.899 160.52 144.722C164.341 142.733 168.248 142.405 170.969 143.857C171.408 144.098 171.891 144.25 172.389 144.305C172.888 144.359 173.392 144.314 173.873 144.173C174.354 144.031 174.802 143.797 175.191 143.482C175.58 143.167 175.903 142.779 176.14 142.339C176.377 141.899 176.523 141.417 176.572 140.921C176.62 140.424 176.569 139.923 176.421 139.446C176.273 138.97 176.031 138.527 175.71 138.144C175.389 137.761 174.995 137.445 174.55 137.215C169.618 134.585 163.061 134.9 157.009 138.043C150.25 141.61 145.178 147.683 142.892 154.946C141 155.05 139.101 155.191 137.214 155.277C136.225 155.32 135.291 155.746 134.614 156.466C133.937 157.185 133.57 158.14 133.592 159.125C133.614 160.11 134.023 161.048 134.732 161.737C135.441 162.425 136.392 162.81 137.383 162.81C137.442 162.81 137.499 162.81 137.559 162.806C138.917 162.744 140.285 162.639 141.647 162.568C141.576 165.253 141.881 167.935 142.553 170.536C140.631 170.642 138.701 170.785 136.787 170.871C135.8 170.918 134.87 171.347 134.196 172.066C133.522 172.784 133.157 173.737 133.179 174.72C133.201 175.702 133.608 176.638 134.314 177.326C135.019 178.015 135.967 178.402 136.955 178.405C137.014 178.405 137.072 178.405 137.131 178.405C139.948 178.277 140.688 178.229 145.616 177.911C146.287 179.073 147.041 180.186 147.872 181.24C150.064 184.083 152.928 186.344 156.21 187.822C158.839 188.906 161.649 189.489 164.494 189.541C164.558 189.541 164.628 189.541 164.704 189.541C167.604 189.541 178.738 187.734 180.323 185.07C180.669 184.485 180.851 183.818 180.848 183.139C180.845 182.461 180.658 181.795 180.307 181.213Z" stroke="#121212" stroke-width="1.55404" stroke-linecap="round" stroke-linejoin="round"/>
<path d="M80.3212 42.2492C79.6041 42.9893 78.6412 43.4451 77.6117 43.5321C77.3647 43.5304 77.1234 43.4586 76.9161 43.3251C76.7088 43.1916 76.5442 43.002 76.4416 42.7785C75.1059 40.0345 69.8964 29.2476 68.9078 25.9141C68.8356 25.6697 68.8369 25.4097 68.9115 25.1661C68.9861 24.9225 69.1307 24.7059 69.3276 24.5431C70.4424 23.6403 71.7651 23.0267 73.1769 22.7575C73.4987 22.693 73.833 22.7468 74.1178 22.9089C74.4027 23.0711 74.6187 23.3306 74.7257 23.6392L80.6517 40.8597C80.7361 41.0984 80.7499 41.3563 80.6913 41.6027C80.6327 41.849 80.5042 42.0734 80.3212 42.2492Z" fill="#FF3268" stroke="#FF3268" stroke-width="1.55404" stroke-linecap="round" stroke-linejoin="round"/>
<path d="M119.435 168.919C120.185 168.212 121.168 167.8 122.201 167.76C122.447 167.773 122.685 167.855 122.886 167.998C123.087 168.141 123.243 168.338 123.335 168.566C124.543 171.367 129.253 182.38 130.089 185.756C130.15 186.003 130.136 186.263 130.051 186.503C129.965 186.743 129.811 186.953 129.606 187.106C128.452 187.958 127.102 188.511 125.679 188.716C125.355 188.766 125.023 188.697 124.746 188.522C124.469 188.347 124.265 188.078 124.172 187.765L119.041 170.294C118.967 170.051 118.965 169.793 119.035 169.549C119.105 169.305 119.244 169.086 119.435 168.919Z" fill="#FF3268" stroke="#FF3268" stroke-width="1.55404" stroke-linecap="round" stroke-linejoin="round"/>
<path d="M103.142 44.729C103.859 45.4687 104.822 45.9243 105.851 46.0112C106.095 46 106.333 45.9244 106.538 45.7921C106.744 45.6599 106.91 45.4757 107.021 45.2584C109.411 41.2788 111.036 38.2196 112.025 34.8861C112.098 34.6418 112.096 34.3818 112.022 34.1381C111.947 33.8945 111.802 33.6779 111.605 33.5152C110.491 32.6123 109.168 31.9988 107.756 31.7295C107.434 31.665 107.1 31.7188 106.815 31.881C106.53 32.0432 106.314 32.3026 106.207 32.6113L102.811 43.3395C102.726 43.5783 102.713 43.8363 102.771 44.0826C102.83 44.329 102.959 44.5534 103.142 44.729Z" fill="#FF3268" stroke="#FF3268" stroke-width="1.55404" stroke-linecap="round" stroke-linejoin="round"/>
<path d="M32.9844 85.3856C33.8348 84.8021 34.4435 83.9314 34.6974 82.9352C34.726 82.6934 34.6895 82.4483 34.5918 82.2251C34.494 82.0018 34.3383 81.8084 34.1408 81.6646C30.5823 78.6713 27.8116 76.5791 24.6665 75.0656C24.4359 74.9552 24.1778 74.9143 23.924 74.948C23.6703 74.9817 23.432 75.0886 23.2387 75.2554C22.1616 76.2027 21.3378 77.401 20.8409 78.7429C20.7247 79.0483 20.7238 79.3852 20.8383 79.6912C20.9528 79.9972 21.1751 80.2515 21.4638 80.4068L31.5522 85.4844C31.7754 85.6062 32.029 85.6617 32.2829 85.6442C32.5368 85.6266 32.7803 85.5369 32.9844 85.3856Z" fill="#FF3268" stroke="#FF3268" stroke-width="1.55404" stroke-linecap="round" stroke-linejoin="round"/>
<path d="M94.8703 163.102C94.0012 162.546 92.9588 162.323 91.9369 162.474C91.701 162.541 91.4874 162.669 91.3178 162.846C91.1483 163.022 91.0289 163.24 90.972 163.477C89.5672 167.896 88.6938 171.246 88.5015 174.716C88.4879 174.97 88.5495 175.223 88.6786 175.443C88.8077 175.663 88.9987 175.841 89.2281 175.954C90.5213 176.579 91.9505 176.874 93.387 176.813C93.715 176.803 94.0279 176.674 94.2676 176.451C94.5073 176.228 94.6575 175.926 94.6903 175.601L95.5133 164.383C95.5414 164.131 95.4957 163.876 95.3817 163.648C95.2676 163.421 95.09 163.231 94.8703 163.102Z" fill="#FF3268" stroke="#FF3268" stroke-width="1.55404" stroke-linecap="round" stroke-linejoin="round"/>
<path d="M65.9355 147.392C65.5957 146.58 64.9708 145.918 64.1772 145.53C63.9787 145.463 63.7658 145.45 63.5604 145.492C63.3551 145.533 63.1646 145.629 63.0086 145.768C59.8577 148.199 57.6047 150.137 55.7722 152.485C55.6384 152.658 55.5582 152.866 55.5414 153.083C55.5247 153.3 55.5721 153.518 55.6779 153.709C56.2839 154.774 57.1461 155.672 58.1872 156.325C58.4235 156.476 58.7072 156.537 58.9854 156.496C59.2636 156.455 59.5173 156.315 59.6993 156.102L65.7656 148.602C65.9075 148.438 65.999 148.236 66.0292 148.022C66.0593 147.807 66.0268 147.589 65.9355 147.392Z" fill="#FF3268" stroke="#FF3268" stroke-width="1.55404" stroke-linecap="round" stroke-linejoin="round"/>
<path d="M158.772 82.5041C159.21 83.3377 159.937 83.9849 160.818 84.3255C161.036 84.379 161.264 84.374 161.479 84.3111C161.694 84.2482 161.888 84.1296 162.042 83.9674C165.172 81.0866 167.392 78.8175 169.124 76.1444C169.251 75.9483 169.317 75.7197 169.315 75.4867C169.313 75.2537 169.242 75.0264 169.111 74.8329C168.366 73.7545 167.364 72.8766 166.194 72.278C165.929 72.1386 165.621 72.1 165.329 72.1693C165.037 72.2386 164.78 72.4111 164.606 72.6547L158.846 81.2026C158.71 81.3899 158.631 81.6119 158.617 81.8426C158.604 82.0732 158.658 82.3027 158.772 82.5041Z" fill="#FF3268" stroke="#FF3268" stroke-width="1.55404" stroke-linecap="round" stroke-linejoin="round"/>
</svg>
