<svg width="414" height="92" viewBox="0 0 414 92" fill="none" xmlns="http://www.w3.org/2000/svg">
<g filter="url(#filter0_dd_1_124)">
<path d="M3.94055 23.3828C3.94055 10.9564 14.0141 0.882812 26.4406 0.882812H380.516C392.942 0.882812 403.016 10.9564 403.016 23.3828V58.4828C403.016 70.9092 392.942 80.9828 380.516 80.9828H26.4406C14.0141 80.9828 3.94055 70.9092 3.94055 58.4828V23.3828Z" fill="url(#paint0_linear_1_124)"/>
<path d="M3.94055 23.3828C3.94055 10.9564 14.0141 0.882812 26.4406 0.882812H380.516C392.942 0.882812 403.016 10.9564 403.016 23.3828V58.4828C403.016 70.9092 392.942 80.9828 380.516 80.9828H26.4406C14.0141 80.9828 3.94055 70.9092 3.94055 58.4828V23.3828Z" fill="black" fill-opacity="0.2"/>
<path d="M3.94055 23.3828C3.94055 10.9564 14.0141 0.882812 26.4406 0.882812H380.516C392.942 0.882812 403.016 10.9564 403.016 23.3828V58.4828C403.016 70.9092 392.942 80.9828 380.516 80.9828H26.4406C14.0141 80.9828 3.94055 70.9092 3.94055 58.4828V23.3828Z" fill="black" fill-opacity="0.2"/>
</g>
<defs>
<filter id="filter0_dd_1_124" x="0.340552" y="0.882812" width="413.475" height="90.9" filterUnits="userSpaceOnUse" color-interpolation-filters="sRGB">
<feFlood flood-opacity="0" result="BackgroundImageFix"/>
<feColorMatrix in="SourceAlpha" type="matrix" values="0 0 0 0 0 0 0 0 0 0 0 0 0 0 0 0 0 0 127 0" result="hardAlpha"/>
<feOffset dx="7.2" dy="7.2"/>
<feGaussianBlur stdDeviation="1.8"/>
<feComposite in2="hardAlpha" operator="out"/>
<feColorMatrix type="matrix" values="0 0 0 0 0 0 0 0 0 0 0 0 0 0 0 0 0 0 0.25 0"/>
<feBlend mode="normal" in2="BackgroundImageFix" result="effect1_dropShadow_1_124"/>
<feColorMatrix in="SourceAlpha" type="matrix" values="0 0 0 0 0 0 0 0 0 0 0 0 0 0 0 0 0 0 127 0" result="hardAlpha"/>
<feOffset dy="3.6"/>
<feGaussianBlur stdDeviation="1.8"/>
<feComposite in2="hardAlpha" operator="out"/>
<feColorMatrix type="matrix" values="0 0 0 0 0 0 0 0 0 0 0 0 0 0 0 0 0 0 0.25 0"/>
<feBlend mode="normal" in2="effect1_dropShadow_1_124" result="effect2_dropShadow_1_124"/>
<feBlend mode="normal" in="SourceGraphic" in2="effect2_dropShadow_1_124" result="shape"/>
</filter>
<linearGradient id="paint0_linear_1_124" x1="3.94055" y1="0.882813" x2="34.8497" y2="154.879" gradientUnits="userSpaceOnUse">
<stop offset="0.182292" stop-color="#6765E2"/>
<stop offset="0.941666" stop-color="#2229AC"/>
</linearGradient>
</defs>
</svg>
