<svg width="112" height="24" viewBox="0 0 112 24" fill="none" xmlns="http://www.w3.org/2000/svg">
<g filter="url(#filter0_d_1_153)">
<g filter="url(#filter1_d_1_153)">
<g filter="url(#filter2_d_1_153)">
<path d="M61.2779 19.4356V0.916504H75.2166V4.55159H66.1096V8.34944H74.5041V11.9936H66.1096V15.8005H75.2166V19.4356H61.2779Z" fill="white" fill-opacity="0.74" shape-rendering="crispEdges"/>
</g>
<g filter="url(#filter3_d_1_153)">
<path fill-rule="evenodd" clip-rule="evenodd" d="M61.1518 19.6265V0.916504H75.2167V4.74257H66.1612V8.34944H74.5082V12.1846H66.1612V15.8005H75.2167V19.6265H61.1518ZM66.0587 15.896V12.0891H74.4057V8.44493H66.0587V4.64708H75.1142V1.01199H61.2543V19.531H75.1142V15.896H66.0587Z" fill="black"/>
<path d="M61.0563 19.6265V19.722H61.1518H75.2167H75.3122V19.6265V15.8005V15.705H75.2167H66.2566V12.28H74.5082H74.6036V12.1846V8.34944V8.25395H74.5082H66.2566V4.83806H75.2167H75.3122V4.74257V0.916504V0.821015H75.2167H61.1518H61.0563V0.916504V19.6265ZM66.0587 8.54042H74.3102V11.9936H66.0587H65.9632V12.0891V15.896V15.9914H66.0587H75.0187V19.4356H61.3498V1.10748H75.0187V4.55159H66.0587H65.9632V4.64708V8.44493V8.54042H66.0587Z" stroke="black" stroke-width="0.190978"/>
</g>
<g filter="url(#filter4_d_1_153)">
<path d="M28.5506 6.22805V4.047H37.9421V6.22805H34.5729V15.1584L31.9253 16.3052V6.22805H28.5506Z" fill="white" fill-opacity="0.74" shape-rendering="crispEdges"/>
<path d="M39.0246 16.3052V4.047H46.7722V6.22805H41.7102V8.50676H46.3761V10.6932H41.7102V12.9774H46.7722V15.1584L39.0246 16.3052Z" fill="white" fill-opacity="0.74" shape-rendering="crispEdges"/>
<path d="M57.6816 4.047V15.1584H55.4029L50.9811 8.74548H50.9106V15.1584L48.2249 16.3052V4.047H50.5362L54.9092 10.4491H55.0014V4.047H57.6816Z" fill="white" fill-opacity="0.74" shape-rendering="crispEdges"/>
<path d="M82.1765 15.5616L78.0694 16.3052V4.04701H82.1711C83.3032 4.04701 84.278 4.26945 85.0954 4.71434C85.9165 5.15562 86.5495 5.79221 86.9943 6.62412C87.4392 7.45241 87.6617 8.44347 87.6617 9.5973C87.6617 10.7547 87.4392 11.7494 86.9943 12.5813C86.5531 13.4132 85.9219 14.0516 85.1008 14.4965C84.2798 14.9378 83.305 15.5616 82.1765 15.5616ZM80.755 12.8689H82.0734C82.6955 12.8689 83.2218 12.764 83.6522 12.5542C84.0863 12.3408 84.4136 11.9954 84.6342 11.5179C84.8585 11.0369 84.9706 10.3967 84.9706 9.5973C84.9706 8.79794 84.8585 8.16135 84.6342 7.68752C84.41 7.21008 84.079 6.86646 83.6414 6.65667C83.2073 6.44327 82.672 6.33657 82.0354 6.33657H80.755V12.8689Z" fill="white" fill-opacity="0.74" shape-rendering="crispEdges"/>
<path d="M88.6949 16.3052V4.047H96.4425V6.22805H91.3805V8.50676H96.0465V10.6932H91.3805V12.9774H96.4425V15.1584L88.6949 16.3052Z" fill="white" fill-opacity="0.74" shape-rendering="crispEdges"/>
<path d="M97.8953 16.3052V4.047H102.485C103.317 4.047 104.035 4.1971 104.639 4.49731C105.247 4.79391 105.715 5.22071 106.044 5.77773C106.374 6.33113 106.538 6.98762 106.538 7.74719C106.538 8.51761 106.37 9.17229 106.034 9.71122C105.697 10.2465 105.22 10.6553 104.601 10.9374C103.983 11.2159 103.25 11.3552 102.404 11.3552H99.5012V9.2392H101.905C102.31 9.2392 102.648 9.18676 102.919 9.08186C103.194 8.97335 103.402 8.81059 103.543 8.59357C103.684 8.37293 103.755 8.09081 103.755 7.74719C103.755 7.40358 103.684 7.11964 103.543 6.89539C103.402 6.66751 103.194 6.49752 102.919 6.38539C102.644 6.26965 102.306 6.21177 101.905 6.21177H100.581V15.1584L97.8953 16.3052ZM104.151 10.0802L106.918 15.1584H103.988L101.275 10.0802H104.151Z" fill="white" fill-opacity="0.74" shape-rendering="crispEdges"/>
<path d="M97.6565 16.6667V16.3052V4.047V3.80827H97.8953H102.485C103.345 3.80827 104.101 3.96339 104.745 4.28309C105.392 4.59909 105.896 5.05707 106.25 5.6557C106.25 5.6559 106.25 5.65609 106.25 5.65629L106.044 5.77773C106.374 6.33113 106.538 6.98762 106.538 7.74719C106.538 8.51761 106.37 9.17229 106.034 9.71122L97.6565 16.6667ZM97.6565 16.6667L97.989 16.5247L100.675 15.378L100.82 15.3161V15.1584V11.5939M97.6565 16.6667L100.82 11.5939M100.82 11.5939H101.813L103.778 15.2709L103.845 15.3972H103.988H106.918H107.32L107.128 15.0442L104.943 11.0343C105.485 10.7416 105.918 10.343 106.236 9.83824L100.82 11.5939ZM28.3119 6.22805V6.46677H28.5506H31.6865V16.3052V16.6687L32.0201 16.5242L34.6678 15.3775L34.8116 15.3152V15.1584V6.46677H37.9421H38.1809V6.22805V4.047V3.80827H37.9421H28.5506H28.3119V4.047V6.22805ZM38.7859 16.3052V16.5818L39.0595 16.5413L46.8072 15.3946L47.0109 15.3644V15.1584V12.9774V12.7387H46.7722H41.9489V10.932H46.3761H46.6149V10.6932V8.50676V8.26804H46.3761H41.9489V6.46677H46.7722H47.0109V6.22805V4.047V3.80827H46.7722H39.0246H38.7859V4.047V16.3052ZM57.9203 4.047V3.80827H57.6816H55.0014H54.7627V4.047V9.81139L50.7333 3.91235L50.6622 3.80827H50.5362H48.2249H47.9862V4.047V16.3052V16.6667L48.3187 16.5247L51.0043 15.378L51.1493 15.3161V15.1584V9.40995L55.2063 15.2939L55.2775 15.3972H55.4029H57.6816H57.9203V15.1584V4.047ZM77.8307 16.3052V16.591L78.1119 16.5401L82.1983 15.8002C83.2476 15.7932 84.1713 15.2821 84.9153 14.8705C85.0183 14.8135 85.1179 14.7584 85.2139 14.7068L85.2146 14.7064C86.0773 14.239 86.7421 13.5663 87.2052 12.6933C87.6721 11.8199 87.9004 10.7849 87.9004 9.5973C87.9004 8.41307 87.672 7.38153 87.2049 6.51154C86.7382 5.6389 86.0717 4.96817 85.209 4.50436C84.3498 4.03691 83.3343 3.80828 82.1711 3.80828H78.0694H77.8307V4.04701V16.3052ZM80.9937 12.6302V6.57529H82.0354C82.6466 6.57529 83.1435 6.67788 83.536 6.87091L83.5382 6.87194C83.9218 7.05582 84.2151 7.35674 84.4182 7.78901L84.4185 7.78964C84.6218 8.21922 84.7319 8.81646 84.7319 9.5973C84.7319 10.3779 84.6219 10.9795 84.4179 11.4171L84.4175 11.4178C84.2177 11.8501 83.9275 12.1528 83.5471 12.3399C83.1576 12.5296 82.6695 12.6302 82.0734 12.6302H80.9937ZM88.4562 16.3052V16.5818L88.7299 16.5413L96.4775 15.3946L96.6813 15.3644V15.1584V12.9774V12.7387H96.4425H91.6193V10.932H96.0465H96.2852V10.6932V8.50676V8.26804H96.0465H91.6193V6.46677H96.4425H96.6813V6.22805V4.047V3.80827H96.4425H88.6949H88.4562V4.047V16.3052ZM101.905 9.00048H100.82V6.4505H101.905C102.285 6.4505 102.589 6.50548 102.827 6.60542L102.829 6.60643C103.063 6.70165 103.229 6.84071 103.34 7.02104L103.341 7.02249C103.452 7.1989 103.516 7.43541 103.516 7.74719C103.516 8.05886 103.452 8.29251 103.342 8.46442C103.232 8.63348 103.067 8.76671 102.832 8.8595C102.597 8.95031 102.291 9.00048 101.905 9.00048Z" stroke="black" stroke-width="0.477444" shape-rendering="crispEdges"/>
</g>
</g>
</g>
<defs>
<filter id="filter0_d_1_153" x="0.251221" y="0.157227" width="110.017" height="23.5008" filterUnits="userSpaceOnUse" color-interpolation-filters="sRGB">
<feFlood flood-opacity="0" result="BackgroundImageFix"/>
<feColorMatrix in="SourceAlpha" type="matrix" values="0 0 0 0 0 0 0 0 0 0 0 0 0 0 0 0 0 0 127 0" result="hardAlpha"/>
<feOffset dx="1.27318" dy="1.27318"/>
<feGaussianBlur stdDeviation="0.636592"/>
<feComposite in2="hardAlpha" operator="out"/>
<feColorMatrix type="matrix" values="0 0 0 0 0 0 0 0 0 0 0 0 0 0 0 0 0 0 0.25 0"/>
<feBlend mode="normal" in2="BackgroundImageFix" result="effect1_dropShadow_1_153"/>
<feBlend mode="normal" in="SourceGraphic" in2="effect1_dropShadow_1_153" result="shape"/>
</filter>
<filter id="filter1_d_1_153" x="28.0732" y="0.725586" width="83.309" height="22.7523" filterUnits="userSpaceOnUse" color-interpolation-filters="sRGB">
<feFlood flood-opacity="0" result="BackgroundImageFix"/>
<feColorMatrix in="SourceAlpha" type="matrix" values="0 0 0 0 0 0 0 0 0 0 0 0 0 0 0 0 0 0 127 0" result="hardAlpha"/>
<feOffset dx="2.38722" dy="2.38722"/>
<feGaussianBlur stdDeviation="0.636592"/>
<feComposite in2="hardAlpha" operator="out"/>
<feColorMatrix type="matrix" values="0 0 0 0 0 0 0 0 0 0 0 0 0 0 0 0 0 0 0.25 0"/>
<feBlend mode="normal" in2="BackgroundImageFix" result="effect1_dropShadow_1_153"/>
<feBlend mode="normal" in="SourceGraphic" in2="effect1_dropShadow_1_153" result="shape"/>
</filter>
<filter id="filter2_d_1_153" x="61.2779" y="0.916504" width="16.4851" height="21.0654" filterUnits="userSpaceOnUse" color-interpolation-filters="sRGB">
<feFlood flood-opacity="0" result="BackgroundImageFix"/>
<feColorMatrix in="SourceAlpha" type="matrix" values="0 0 0 0 0 0 0 0 0 0 0 0 0 0 0 0 0 0 127 0" result="hardAlpha"/>
<feOffset dx="1.27318" dy="1.27318"/>
<feGaussianBlur stdDeviation="0.636592"/>
<feComposite in2="hardAlpha" operator="out"/>
<feColorMatrix type="matrix" values="0 0 0 0 0 0 0 0 0 0 0 0 0 0 0 0 0 0 0.25 0"/>
<feBlend mode="normal" in2="BackgroundImageFix" result="effect1_dropShadow_1_153"/>
<feBlend mode="normal" in="SourceGraphic" in2="effect1_dropShadow_1_153" result="shape"/>
</filter>
<filter id="filter3_d_1_153" x="60.6425" y="0.40729" width="16.9932" height="21.6383" filterUnits="userSpaceOnUse" color-interpolation-filters="sRGB">
<feFlood flood-opacity="0" result="BackgroundImageFix"/>
<feColorMatrix in="SourceAlpha" type="matrix" values="0 0 0 0 0 0 0 0 0 0 0 0 0 0 0 0 0 0 127 0" result="hardAlpha"/>
<feOffset dx="0.954889" dy="0.954889"/>
<feGaussianBlur stdDeviation="0.636592"/>
<feComposite in2="hardAlpha" operator="out"/>
<feColorMatrix type="matrix" values="0 0 0 0 0 0 0 0 0 0 0 0 0 0 0 0 0 0 0.25 0"/>
<feBlend mode="normal" in2="BackgroundImageFix" result="effect1_dropShadow_1_153"/>
<feBlend mode="normal" in="SourceGraphic" in2="effect1_dropShadow_1_153" result="shape"/>
</filter>
<filter id="filter4_d_1_153" x="27.7549" y="3.25128" width="82.1949" height="16.009" filterUnits="userSpaceOnUse" color-interpolation-filters="sRGB">
<feFlood flood-opacity="0" result="BackgroundImageFix"/>
<feColorMatrix in="SourceAlpha" type="matrix" values="0 0 0 0 0 0 0 0 0 0 0 0 0 0 0 0 0 0 127 0" result="hardAlpha"/>
<feOffset dx="0.954889" dy="0.954889"/>
<feGaussianBlur stdDeviation="0.636592"/>
<feComposite in2="hardAlpha" operator="out"/>
<feColorMatrix type="matrix" values="0 0 0 0 0 0 0 0 0 0 0 0 0 0 0 0 0 0 0.25 0"/>
<feBlend mode="normal" in2="BackgroundImageFix" result="effect1_dropShadow_1_153"/>
<feBlend mode="normal" in="SourceGraphic" in2="effect1_dropShadow_1_153" result="shape"/>
</filter>
</defs>
</svg>
