<svg width="363" height="400" viewBox="0 0 363 400" fill="none" xmlns="http://www.w3.org/2000/svg">
<path d="M0.544598 73.554C4.18511 164.419 6.60464 213.923 14.482 288.639C21.1457 317.21 28.1946 329.032 51.0678 337.097C142.16 362.434 206.061 382.72 280.164 400.007C310.335 399.302 321.091 391.643 330.687 374.503C347.085 314.049 350.151 247.856 362.047 163.669C363.641 131.202 357.046 118.015 330.687 104.159C234.12 64.6441 93.7511 10.6438 93.7511 10.6438C93.7511 10.6438 66.9198 -1.93646 51.0678 1.29231C32.5281 6.9576 24.4626 13.2305 14.482 25.9463C2.96779 40.95 -0.0479493 51.3829 0.544598 73.554Z" fill="#000B45"/>
</svg>
