<svg width="362" height="400" viewBox="0 0 362 400" fill="none" xmlns="http://www.w3.org/2000/svg">
<path d="M361.831 73.3581C358.19 164.223 355.771 213.727 347.893 288.443C341.229 317.014 334.18 328.836 311.307 336.901C220.214 362.238 156.312 382.524 82.2076 399.811C52.0363 399.106 41.2798 391.447 31.6837 374.307C15.2863 313.853 12.2196 247.66 0.324188 163.473C-1.27029 131.006 5.32507 117.819 31.6838 103.963C128.252 64.4481 268.623 10.4479 268.623 10.4479C268.623 10.4479 295.455 -2.13242 311.307 1.09635C329.847 6.76164 337.912 13.0345 347.893 25.7503C359.407 40.7541 362.423 51.1869 361.831 73.3581Z" fill="#000B45"/>
</svg>
