<svg width="37" height="32" viewBox="0 0 37 32" fill="none" xmlns="http://www.w3.org/2000/svg">
<path d="M25.7404 15.9099C27.3004 14.4337 28.2582 12.4898 28.2582 10.3553C28.2582 5.76018 23.8567 2.02136 18.4471 2.02136C13.0375 2.02136 8.63601 5.76018 8.63601 10.3553C8.63601 14.9504 13.0375 18.6893 18.4471 18.6893C20.3541 18.6893 22.1299 18.2173 23.6384 17.4142C28.9731 19.1216 32.6462 23.2688 33.1134 28.0649H3.78199C4.09962 24.8366 5.88278 21.8259 8.78318 19.6779C9.29458 19.2997 9.34732 18.6424 8.90214 18.208C8.45819 17.7746 7.68311 17.7288 7.17171 18.1069C3.42511 20.88 1.27771 24.8887 1.27771 29.1067C1.27771 29.6828 1.82713 30.1484 2.50409 30.1484H34.3901C35.0683 30.1484 35.6165 29.6828 35.6165 29.1067C35.6165 23.3917 31.7166 18.2882 25.7404 15.9099ZM11.0888 10.3553C11.0888 6.90818 14.389 4.10485 18.4471 4.10485C22.5052 4.10485 25.8054 6.90818 25.8054 10.3553C25.8054 13.8024 22.5052 16.6058 18.4471 16.6058C14.389 16.6058 11.0888 13.8024 11.0888 10.3553Z" fill="#000B45" fill-opacity="0.54" stroke="white" stroke-width="2.35541"/>
</svg>
