<svg width="36" height="33" viewBox="0 0 36 33" fill="none" xmlns="http://www.w3.org/2000/svg">
<path d="M26.6514 28.1378H4.3897V8.20192H15.2492L19.7016 4.21475H4.3897C1.99309 4.21475 -3.05176e-05 5.99964 -3.05176e-05 8.20192V28.1378C-3.05176e-05 30.3401 1.99309 32.1249 4.3897 32.1249H26.5888C29.0473 32.1249 30.9785 30.3401 30.9785 28.1378L30.9782 14.4256L26.5885 18.4122V28.1378H26.6514ZM34.6378 2.856L32.6808 1.10289C31.3764 -0.0652223 29.2623 -0.0652223 27.9586 1.10289L25.2719 3.50952L31.9511 9.4909L34.6378 7.08427C35.9457 5.9174 35.9457 4.02412 34.6378 2.856ZM10.2473 17.3226L8.92273 23.2547C8.806 23.7778 9.32101 24.2391 9.90503 24.1344L16.53 22.9482C16.8532 22.8903 17.15 22.7481 17.3829 22.5394L30.3781 10.9019L23.6989 4.92048L10.6995 16.5625C10.4699 16.7681 10.3099 17.036 10.2473 17.3226Z" fill="white"/>
</svg>
